<svg width="17" height="30" viewBox="0 0 17 30" fill="none" xmlns="http://www.w3.org/2000/svg">
<path d="M16.2446 14.9911C16.2444 15.298 16.1221 15.5925 15.9049 15.8096L2.0057 29.6314C1.79137 29.8613 1.49301 29.9944 1.17863 29.9998C0.864499 30.0053 0.56149 29.883 0.339381 29.6609C0.117033 29.4385 -0.00525411 29.1355 0.000173194 28.8214C0.00586107 28.507 0.138754 28.2086 0.368595 27.9943L13.4339 14.9138L0.275932 1.75586C0.0934025 1.45285 0.0592765 1.08261 0.183635 0.751415C0.307993 0.419966 0.577135 0.16375 0.914006 0.0553951C1.25088 -0.0526734 1.61903 -0.000967097 1.91303 0.196043L15.8897 14.1727L15.8894 14.1727C16.1126 14.387 16.2403 14.6818 16.2447 14.9912L16.2446 14.9911Z" fill="#1D1D1D"/>
</svg>
