<svg width="199" height="45" viewBox="0 0 199 45" fill="none" xmlns="http://www.w3.org/2000/svg">
<path d="M13.2715 8.52539H19.1777L32.4668 36H26.6133L24.416 31.377H8.36719L6.24023 36H0.369141L13.2715 8.52539ZM22.2188 26.7891L16.2773 14.3086L10.4941 26.7891H22.2188Z" fill="#92ED00"/>
<path d="M98.1816 13.4121H88.0391V8.52539H113.896V13.4121H103.754V36H98.1816V13.4121Z" fill="#92ED00"/>
<path d="M36.252 13.1045H40.8955V31.9277H54.2109V36H36.252V13.1045ZM57.375 24.4863C57.375 22.7578 57.6924 21.1758 58.3271 19.7402C58.9619 18.3047 59.8506 17.0742 60.9932 16.0488C62.1455 15.0137 63.5225 14.2129 65.124 13.6465C66.7354 13.0801 68.5176 12.7969 70.4707 12.7969C72.4141 12.7969 74.1914 13.0801 75.8027 13.6465C77.4141 14.2129 78.791 15.0137 79.9336 16.0488C81.0859 17.0742 81.9795 18.3047 82.6143 19.7402C83.249 21.1758 83.5664 22.7578 83.5664 24.4863C83.5664 26.2246 83.249 27.8213 82.6143 29.2764C81.9795 30.7217 81.0859 31.9668 79.9336 33.0117C78.791 34.0566 77.4141 34.8721 75.8027 35.458C74.1914 36.0342 72.4141 36.3223 70.4707 36.3223C68.5176 36.3223 66.7354 36.0342 65.124 35.458C63.5225 34.8721 62.1455 34.0566 60.9932 33.0117C59.8506 31.9668 58.9619 30.7217 58.3271 29.2764C57.6924 27.8213 57.375 26.2246 57.375 24.4863ZM62.0186 24.4863C62.0186 25.668 62.2285 26.7324 62.6484 27.6797C63.0781 28.627 63.6689 29.4375 64.4209 30.1113C65.1826 30.7754 66.0762 31.2881 67.1016 31.6494C68.1367 32.0107 69.2598 32.1914 70.4707 32.1914C71.6816 32.1914 72.7998 32.0107 73.8252 31.6494C74.8604 31.2881 75.7539 30.7754 76.5059 30.1113C77.2578 29.4375 77.8486 28.627 78.2783 27.6797C78.708 26.7324 78.9229 25.668 78.9229 24.4863C78.9229 23.3047 78.708 22.2451 78.2783 21.3076C77.8486 20.3701 77.2578 19.5791 76.5059 18.9346C75.7539 18.2803 74.8604 17.7822 73.8252 17.4404C72.7998 17.0986 71.6816 16.9277 70.4707 16.9277C69.2598 16.9277 68.1367 17.0986 67.1016 17.4404C66.0762 17.7822 65.1826 18.2803 64.4209 18.9346C63.6689 19.5791 63.0781 20.3701 62.6484 21.3076C62.2285 22.2451 62.0186 23.3047 62.0186 24.4863Z" fill="#92ED00"/>
<path d="M119.252 13.1045H138.749V17.1768H123.896V21.7471H137.05V25.5703H123.896V31.9424H139.057V36H119.252V13.1045ZM142.821 24.4131C142.821 22.7822 143.129 21.2637 143.744 19.8574C144.359 18.4414 145.248 17.2158 146.41 16.1807C147.582 15.1357 149.008 14.3154 150.688 13.7197C152.377 13.124 154.286 12.8262 156.415 12.8262C158.28 12.8262 159.989 13.0166 161.542 13.3975C163.104 13.7686 164.555 14.3398 165.893 15.1113L163.754 18.627C163.354 18.3633 162.89 18.1289 162.362 17.9238C161.845 17.7188 161.288 17.5479 160.692 17.4111C160.106 17.2646 159.496 17.1523 158.861 17.0742C158.236 16.9961 157.616 16.957 157.001 16.957C155.517 16.957 154.193 17.1426 153.031 17.5137C151.869 17.875 150.888 18.3877 150.087 19.0518C149.296 19.7061 148.69 20.4922 148.271 21.4102C147.86 22.3184 147.655 23.3193 147.655 24.4131C147.655 25.5459 147.87 26.5859 148.3 27.5332C148.729 28.4805 149.35 29.3008 150.16 29.9941C150.98 30.6777 151.977 31.2148 153.148 31.6055C154.33 31.9863 155.663 32.1768 157.147 32.1768C157.821 32.1768 158.49 32.1279 159.154 32.0303C159.818 31.9326 160.458 31.8008 161.073 31.6348C161.698 31.459 162.299 31.2539 162.875 31.0195C163.451 30.7754 163.988 30.5117 164.486 30.2285L166.625 33.7441C165.375 34.5449 163.93 35.1748 162.289 35.6338C160.648 36.083 158.905 36.3076 157.06 36.3076C154.706 36.3076 152.641 36.0049 150.863 35.3994C149.086 34.7842 147.602 33.9443 146.41 32.8799C145.219 31.8057 144.32 30.5459 143.715 29.1006C143.119 27.6455 142.821 26.083 142.821 24.4131ZM171.737 13.1045H176.381V19.0811H190.619V13.1045H195.277V36H190.619V23.0508H176.381V36H171.737V13.1045Z" fill="#92ED00"/>
</svg>
