<svg width="1295" height="77" viewBox="0 0 1295 77" fill="none" xmlns="http://www.w3.org/2000/svg">
<path d="M0.40625 1.73438V0.734375H-0.59375V1.73438H0.40625ZM62.0469 11.5312L61.406 12.299L61.4129 12.3046L62.0469 11.5312ZM70.5312 22.9688L69.6059 23.3479L69.6091 23.3557L70.5312 22.9688ZM70.5781 52.8281L71.5035 53.2073L71.5044 53.205L70.5781 52.8281ZM62.1406 64.5469L62.796 65.3022L62.7996 65.2991L62.1406 64.5469ZM47.7969 72.2812L48.1007 73.234L48.1054 73.2325L47.7969 72.2812ZM27.3594 75.0469L27.3576 76.0469H27.3594V75.0469ZM0.40625 75H-0.59375V75.9983L0.40451 76L0.40625 75ZM42.5938 60.4688L42.9126 61.4166L42.9206 61.4138L42.5938 60.4688ZM50.9375 55.5938L50.2563 54.8617L50.2512 54.8665L50.9375 55.5938ZM56 28.3594L55.0674 28.7204L55.0688 28.7238L56 28.3594ZM50.9375 21L50.2622 21.7376L50.2677 21.7425L50.2731 21.7474L50.9375 21ZM15.2656 14.6719V13.6719H14.2656V14.6719H15.2656ZM15.2656 62.1562H14.2656V63.1562H15.2656V62.1562ZM0.40625 2.73438H27.2656V0.734375H0.40625V2.73438ZM27.2656 2.73438C35.0415 2.73438 41.7554 3.57126 47.4229 5.22557L47.9833 3.30568C42.0884 1.58499 35.1773 0.734375 27.2656 0.734375V2.73438ZM47.4229 5.22557C53.1007 6.88287 57.7513 9.24826 61.4061 12.299L62.6877 10.7635C58.78 7.50174 53.868 5.02338 47.9833 3.30568L47.4229 5.22557ZM61.4129 12.3046C65.0989 15.3259 67.826 19.0036 69.6059 23.3479L71.4566 22.5896C69.549 17.9339 66.6198 13.9866 62.6808 10.7579L61.4129 12.3046ZM69.6091 23.3557C71.4254 27.6845 72.3438 32.5813 72.3438 38.0625H74.3438C74.3438 32.3562 73.3871 27.1905 71.4534 22.5818L69.6091 23.3557ZM72.3438 38.0625C72.3438 43.257 71.4429 48.0496 69.6519 52.4512L71.5044 53.205C73.4009 48.5441 74.3438 43.493 74.3438 38.0625H72.3438ZM69.6528 52.449C67.8698 56.8008 65.1505 60.5807 61.4817 63.7947L62.7996 65.2991C66.6933 61.8881 69.599 57.8555 71.5035 53.2073L69.6528 52.449ZM61.4852 63.7916C57.8245 66.9683 53.1687 69.4878 47.4884 71.33L48.1054 73.2325C53.9876 71.3247 58.8942 68.688 62.796 65.3022L61.4852 63.7916ZM47.493 71.3285C41.8339 73.1333 35.1285 74.0469 27.3594 74.0469V76.0469C35.2777 76.0469 42.1973 75.1167 48.1007 73.234L47.493 71.3285ZM27.3611 74.0469L0.40799 74L0.40451 76L27.3576 76.0469L27.3611 74.0469ZM1.40625 75V1.73438H-0.59375V75H1.40625ZM30.9219 63.1562C35.4411 63.1562 39.4436 62.5837 42.9126 61.4165L42.2749 59.521C39.0564 60.6038 35.2776 61.1562 30.9219 61.1562V63.1562ZM42.9206 61.4138C46.377 60.2186 49.2868 58.5264 51.6238 56.321L50.2512 54.8665C48.1507 56.8486 45.498 58.4064 42.2669 59.5237L42.9206 61.4138ZM51.6187 56.3258C53.985 54.1238 55.7575 51.462 56.9351 48.3544L55.0649 47.6456C53.9925 50.4755 52.39 52.8762 50.2563 54.8617L51.6187 56.3258ZM56.9351 48.3544C58.109 45.2566 58.6875 41.8217 58.6875 38.0625H56.6875C56.6875 41.6158 56.141 44.8059 55.0649 47.6456L56.9351 48.3544ZM58.6875 38.0625C58.6875 34.3642 58.1085 31.0035 56.9312 27.995L55.0688 28.7238C56.1415 31.4653 56.6875 34.5733 56.6875 38.0625H58.6875ZM56.9326 27.9984C55.7523 24.9492 53.975 22.362 51.6019 20.2526L50.2731 21.7474C52.4 23.638 53.9977 25.957 55.0674 28.7204L56.9326 27.9984ZM51.6128 20.2624C49.2728 18.1202 46.3609 16.4926 42.9046 15.3621L42.2829 17.2629C45.5141 18.3199 48.1647 19.8173 50.2622 21.7376L51.6128 20.2624ZM42.9046 15.3621C39.4383 14.2282 35.4387 13.6719 30.9219 13.6719V15.6719C35.2801 15.6719 39.0617 16.2093 42.2829 17.2629L42.9046 15.3621ZM30.9219 13.6719H15.2656V15.6719H30.9219V13.6719ZM14.2656 14.6719V62.1562H16.2656V14.6719H14.2656ZM15.2656 63.1562H30.9219V61.1562H15.2656V63.1562ZM79.175 1.73438V0.734375H78.175V1.73438H79.175ZM94.1281 1.73438H95.1281V0.734375H94.1281V1.73438ZM94.1281 75V76H95.1281V75H94.1281ZM79.175 75H78.175V76H79.175V75ZM79.175 2.73438H94.1281V0.734375H79.175V2.73438ZM93.1281 1.73438V75H95.1281V1.73438H93.1281ZM94.1281 74H79.175V76H94.1281V74ZM80.175 75V1.73438H78.175V75H80.175ZM109.334 53.2031L109.826 52.3324L109.012 51.8728L108.499 52.6537L109.334 53.2031ZM117.397 57.2812L116.988 58.1938L117 58.1993L117.397 57.2812ZM125.928 60.3281L125.652 61.2893L125.662 61.2919L125.928 60.3281ZM135.163 62.2031L135.028 63.194L135.029 63.1942L135.163 62.2031ZM156.772 62.0156L156.951 62.9995L156.96 62.9977L156.772 62.0156ZM164.319 59.625L164.777 60.5136L164.783 60.5108L164.319 59.625ZM168.584 55.9688L167.744 55.427L167.74 55.4337L167.735 55.4404L168.584 55.9688ZM166.616 45.0938L166.04 45.9114L166.048 45.9168L166.616 45.0938ZM149.928 43.1719L150.039 44.1659L150.052 44.1642L149.928 43.1719ZM143.084 44.0156L142.95 43.0246L142.949 43.0249L143.084 44.0156ZM136.288 44.9062L136.399 45.9L136.412 45.8985L136.288 44.9062ZM120.538 44.0156L120.267 44.9783L120.269 44.979L120.538 44.0156ZM112.522 40.2188L111.932 41.0266L111.938 41.0303L112.522 40.2188ZM105.725 19.0781L104.763 18.8034L104.761 18.8105L104.76 18.8176L105.725 19.0781ZM108.35 13.4531L107.52 12.8951L107.518 12.8984L108.35 13.4531ZM113.037 8.4375L113.664 9.21716L113.671 9.21089L113.037 8.4375ZM119.928 4.40625L119.546 3.48223L119.542 3.48381L119.928 4.40625ZM129.303 1.78125L129.477 2.76597L129.484 2.7647L129.303 1.78125ZM151.334 1.35938L151.222 2.35307L151.231 2.35403L151.334 1.35938ZM160.991 2.85938L160.785 3.83803L160.787 3.83844L160.991 2.85938ZM170.084 5.25L169.777 6.20175L169.787 6.20466L170.084 5.25ZM178.194 8.29688L179.073 8.77404L179.587 7.82712L178.604 7.38495L178.194 8.29688ZM171.678 20.2969L171.276 21.2124L172.118 21.5824L172.557 20.774L171.678 20.2969ZM165.022 17.8125L164.709 18.7625L164.721 18.7661L165.022 17.8125ZM149.506 14.4844L149.382 15.4767L149.395 15.4781L149.506 14.4844ZM130.944 14.8594L130.726 13.8835L130.723 13.884L130.944 14.8594ZM124.663 17.1562L125.164 18.0213L125.171 18.0176L125.177 18.0137L124.663 17.1562ZM121.381 20.25L120.501 19.7745L120.497 19.7832L121.381 20.25ZM123.444 29.0156L122.862 29.8294L122.871 29.8355L123.444 29.0156ZM138.022 30.75L138.126 31.7447L138.139 31.7431L138.022 30.75ZM144.678 29.9531L144.559 28.9602L144.557 28.9604L144.678 29.9531ZM151.803 29.2031L151.894 30.1991L151.905 30.1979L151.803 29.2031ZM170.319 30.2812L170.038 31.2411L170.04 31.2418L170.319 30.2812ZM178.709 34.4531L178.082 35.2319L178.089 35.2372L178.709 34.4531ZM183.819 40.9688L182.907 41.38L182.909 41.3842L183.819 40.9688ZM182.6 60.7969L181.74 60.286L181.739 60.2884L182.6 60.7969ZM174.256 69.1406L174.787 69.9882L174.789 69.987L174.256 69.1406ZM161.225 74.2969L161.446 75.2721L161.452 75.2708L161.225 74.2969ZM132.116 75.2344L132.249 74.2433L132.242 74.2423L132.116 75.2344ZM120.772 73.0781L120.512 74.0437L120.521 74.0463L120.772 73.0781ZM110.459 69.6562L110.077 70.5804L110.088 70.5847L110.459 69.6562ZM101.412 65.25L100.577 64.7006L99.9928 65.589L100.915 66.1176L101.412 65.25ZM108.843 54.0739C111.525 55.5887 114.24 56.9621 116.988 58.1938L117.806 56.3687C115.116 55.1629 112.456 53.8175 109.826 52.3324L108.843 54.0739ZM117 58.1993C119.79 59.4041 122.674 60.434 125.652 61.2893L126.204 59.367C123.307 58.5348 120.503 57.5334 117.793 56.3632L117 58.1993ZM125.662 61.2919C128.645 62.1172 131.767 62.7509 135.028 63.194L135.297 61.2122C132.12 60.7804 129.086 60.1641 126.195 59.3643L125.662 61.2919ZM135.029 63.1942C138.328 63.6383 141.826 63.8594 145.522 63.8594V61.8594C141.905 61.8594 138.497 61.643 135.296 61.2121L135.029 63.1942ZM145.522 63.8594C149.966 63.8594 153.78 63.576 156.951 62.9995L156.593 61.0318C153.576 61.5802 149.89 61.8594 145.522 61.8594V63.8594ZM156.96 62.9977C160.11 62.3932 162.726 61.5723 164.777 60.5136L163.86 58.7364C162.036 59.6777 159.621 60.4506 156.583 61.0335L156.96 62.9977ZM164.783 60.5108C166.857 59.4242 168.437 58.0979 169.433 56.4971L167.735 55.4404C166.981 56.6521 165.718 57.7633 163.855 58.7392L164.783 60.5108ZM169.425 56.5105C170.434 54.9444 170.944 53.2254 170.944 51.375H168.944C168.944 52.8371 168.547 54.1806 167.744 55.427L169.425 56.5105ZM170.944 51.375C170.944 48.3843 169.668 45.9853 167.184 44.2707L166.048 45.9168C168.001 47.2647 168.944 49.0532 168.944 51.375H170.944ZM167.191 44.2761C164.722 42.5373 161.051 41.75 156.35 41.75V43.75C160.899 43.75 164.071 44.5252 166.04 45.9114L167.191 44.2761ZM156.35 41.75C154.273 41.75 152.091 41.8938 149.804 42.1796L150.052 44.1642C152.266 43.8875 154.365 43.75 156.35 43.75V41.75ZM149.818 42.178C147.56 42.4289 145.271 42.7111 142.95 43.0246L143.218 45.0066C145.523 44.6951 147.797 44.4149 150.039 44.1658L149.818 42.178ZM142.949 43.0249C140.671 43.3369 138.41 43.6332 136.163 43.914L136.412 45.8985C138.665 45.6168 140.935 45.3194 143.22 45.0064L142.949 43.0249ZM136.176 43.9125C133.989 44.1589 131.933 44.2812 130.006 44.2812V46.2812C132.017 46.2812 134.148 46.1536 136.399 45.9L136.176 43.9125ZM130.006 44.2812C126.812 44.2812 123.746 43.8707 120.806 43.0522L120.269 44.979C123.392 45.8481 126.638 46.2812 130.006 46.2812V44.2812ZM120.808 43.053C117.912 42.2384 115.348 41.0212 113.106 39.4072L111.938 41.0303C114.383 42.7913 117.163 44.1054 120.267 44.9783L120.808 43.053ZM113.111 39.411C110.919 37.8114 109.174 35.8152 107.869 33.4133L106.112 34.368C107.557 37.0286 109.499 39.2511 111.932 41.0265L113.111 39.411ZM107.869 33.4133C106.587 31.0519 105.928 28.2682 105.928 25.0312H103.928C103.928 28.5443 104.645 31.6669 106.112 34.368L107.869 33.4133ZM105.928 25.0312C105.928 23.121 106.182 21.2241 106.69 19.3386L104.76 18.8176C104.206 20.8696 103.928 22.9415 103.928 25.0312H105.928ZM106.687 19.3528C107.219 17.488 108.049 15.707 109.182 14.0078L107.518 12.8984C106.276 14.7618 105.356 16.7307 104.763 18.8034L106.687 19.3528ZM109.18 14.0111C110.336 12.2917 111.827 10.6926 113.664 9.21712L112.411 7.65788C110.436 9.24486 108.801 10.9896 107.52 12.8951L109.18 14.0111ZM113.671 9.21089C115.491 7.7198 117.7 6.42288 120.314 5.32869L119.542 3.48381C116.781 4.63962 114.397 6.0302 112.404 7.66411L113.671 9.21089ZM120.31 5.33027C122.95 4.23821 126.003 3.38095 129.477 2.76595L129.129 0.796555C125.541 1.43155 122.344 2.32429 119.546 3.48223L120.31 5.33027ZM129.484 2.7647C132.974 2.12179 136.959 1.79688 141.444 1.79688V-0.203125C136.866 -0.203125 132.757 0.128206 129.122 0.797796L129.484 2.7647ZM141.444 1.79688C144.687 1.79688 147.946 1.98219 151.222 2.35303L151.447 0.365723C148.098 -0.0134392 144.763 -0.203125 141.444 -0.203125V1.79688ZM151.231 2.35403C154.511 2.69437 157.695 3.18917 160.785 3.83803L161.196 1.88072C158.036 1.21708 154.783 0.71188 151.438 0.364716L151.231 2.35403ZM160.787 3.83844C163.91 4.48782 166.907 5.27575 169.777 6.20171L170.391 4.29829C167.449 3.34925 164.383 2.54343 161.194 1.88031L160.787 3.83844ZM169.787 6.20466C172.659 7.10023 175.324 8.10198 177.783 9.2088L178.604 7.38495C176.064 6.24177 173.323 5.21227 170.382 4.29534L169.787 6.20466ZM177.315 7.81971L170.799 19.8197L172.557 20.774L179.073 8.77404L177.315 7.81971ZM172.08 19.3814C169.982 18.4592 167.729 17.6187 165.323 16.8589L164.721 18.7661C167.065 19.5063 169.25 20.3221 171.276 21.2124L172.08 19.3814ZM165.334 16.8626C162.924 16.0698 160.406 15.389 157.781 14.8196L157.357 16.7742C159.919 17.3297 162.369 17.9927 164.709 18.7624L165.334 16.8626ZM157.781 14.8196C155.152 14.2495 152.431 13.8067 149.618 13.4906L149.395 15.4781C152.144 15.787 154.798 16.2192 157.357 16.7742L157.781 14.8196ZM149.63 13.4921C146.838 13.143 143.984 12.9688 141.069 12.9688V14.9688C143.904 14.9688 146.675 15.1382 149.382 15.4767L149.63 13.4921ZM141.069 12.9688C136.934 12.9688 133.48 13.2679 130.726 13.8835L131.162 15.8353C133.72 15.2634 137.016 14.9688 141.069 14.9688V12.9688ZM130.723 13.884C128.039 14.4911 125.834 15.2872 124.148 16.2988L125.177 18.0137C126.616 17.1503 128.598 16.4151 131.164 15.8347L130.723 13.884ZM124.161 16.2912C122.496 17.2567 121.241 18.4062 120.502 19.7745L122.261 20.7255C122.771 19.7813 123.704 18.8683 125.164 18.0213L124.161 16.2912ZM120.497 19.7832C119.837 21.0331 119.491 22.3171 119.491 23.625H121.491C121.491 22.6829 121.738 21.7169 122.266 20.7168L120.497 19.7832ZM119.491 23.625C119.491 26.1733 120.663 28.2585 122.863 29.8294L124.025 28.2019C122.287 26.9602 121.491 25.4517 121.491 23.625H119.491ZM122.871 29.8355C125.087 31.3833 128.333 32.0781 132.444 32.0781V30.0781C128.492 30.0781 125.738 29.398 124.016 28.1958L122.871 29.8355ZM132.444 32.0781C134.112 32.0781 136.007 31.966 138.126 31.7446L137.918 29.7554C135.849 29.9715 134.026 30.0781 132.444 30.0781V32.0781ZM138.139 31.7431C140.265 31.493 142.485 31.2272 144.799 30.9458L144.557 28.9604C142.246 29.2415 140.029 29.507 137.905 29.7569L138.139 31.7431ZM144.797 30.946C147.131 30.6659 149.497 30.4169 151.894 30.199L151.713 28.2072C149.297 28.4268 146.912 28.6778 144.559 28.9602L144.797 30.946ZM151.905 30.1979C154.311 29.9511 156.636 29.8281 158.881 29.8281V27.8281C156.564 27.8281 154.17 27.9551 151.701 28.2083L151.905 30.1979ZM158.881 29.8281C163.121 29.8281 166.836 30.3046 170.038 31.241L170.599 29.3215C167.176 28.3204 163.266 27.8281 158.881 27.8281V29.8281ZM170.04 31.2418C173.282 32.181 175.954 33.5177 178.082 35.2319L179.337 33.6744C176.965 31.7636 174.043 30.319 170.597 29.3207L170.04 31.2418ZM178.089 35.2372C180.216 36.9213 181.818 38.9664 182.907 41.38L184.73 40.5575C183.507 37.8461 181.703 35.5474 179.33 33.6691L178.089 35.2372ZM182.909 41.3842C183.998 43.7686 184.553 46.4679 184.553 49.5H186.553C186.553 46.2196 185.952 43.2314 184.728 40.5533L182.909 41.3842ZM184.553 49.5C184.553 53.5565 183.609 57.1425 181.74 60.286L183.46 61.3078C185.529 57.8263 186.553 53.881 186.553 49.5H184.553ZM181.739 60.2884C179.892 63.4163 177.231 66.0872 173.724 68.2943L174.789 69.987C178.532 67.6315 181.433 64.74 183.461 61.3053L181.739 60.2884ZM173.726 68.293C170.244 70.4726 166.008 72.1549 160.998 73.323L161.452 75.2708C166.629 74.0638 171.081 72.3086 174.787 69.9882L173.726 68.293ZM161.004 73.3217C155.995 74.4586 150.399 75.0312 144.209 75.0312V77.0312C150.52 77.0312 156.267 76.4476 161.446 75.2721L161.004 73.3217ZM144.209 75.0312C140.127 75.0312 136.141 74.7684 132.249 74.2434L131.982 76.2254C135.965 76.7628 140.041 77.0312 144.209 77.0312V75.0312ZM132.242 74.2423C128.344 73.7474 124.604 73.0363 121.022 72.11L120.521 74.0463C124.19 74.995 128.013 75.7214 131.99 76.2264L132.242 74.2423ZM121.032 72.1126C117.474 71.1535 114.074 70.025 110.831 68.7278L110.088 70.5847C113.407 71.9125 116.882 73.0653 120.512 74.0437L121.032 72.1126ZM110.841 68.7321C107.627 67.4032 104.65 65.9529 101.91 64.3824L100.915 66.1176C103.737 67.7346 106.792 69.2218 110.077 70.5804L110.841 68.7321ZM102.248 65.7994L110.17 53.7526L108.499 52.6537L100.577 64.7006L102.248 65.7994ZM219.387 1.73438V0.734375H218.387V1.73438H219.387ZM281.028 11.5312L280.387 12.299L280.394 12.3046L281.028 11.5312ZM289.513 22.9688L288.587 23.3479L288.59 23.3557L289.513 22.9688ZM289.559 52.8281L290.485 53.2073L290.486 53.205L289.559 52.8281ZM281.122 64.5469L281.777 65.3022L281.781 65.2991L281.122 64.5469ZM266.778 72.2812L267.082 73.234L267.087 73.2325L266.778 72.2812ZM246.341 75.0469L246.339 76.0469H246.341V75.0469ZM219.387 75H218.387V75.9983L219.386 76L219.387 75ZM261.575 60.4688L261.894 61.4166L261.902 61.4138L261.575 60.4688ZM269.919 55.5938L269.237 54.8617L269.232 54.8665L269.919 55.5938ZM274.981 28.3594L274.049 28.7204L274.05 28.7238L274.981 28.3594ZM269.919 21L269.243 21.7376L269.249 21.7425L269.254 21.7474L269.919 21ZM234.247 14.6719V13.6719H233.247V14.6719H234.247ZM234.247 62.1562H233.247V63.1562H234.247V62.1562ZM219.387 2.73438H246.247V0.734375H219.387V2.73438ZM246.247 2.73438C254.023 2.73438 260.737 3.57126 266.404 5.22557L266.965 3.30568C261.07 1.58499 254.159 0.734375 246.247 0.734375V2.73438ZM266.404 5.22557C272.082 6.88287 276.733 9.24826 280.387 12.299L281.669 10.7635C277.761 7.50174 272.849 5.02338 266.965 3.30568L266.404 5.22557ZM280.394 12.3046C284.08 15.3259 286.807 19.0036 288.587 23.3479L290.438 22.5896C288.53 17.9339 285.601 13.9866 281.662 10.7579L280.394 12.3046ZM288.59 23.3557C290.407 27.6845 291.325 32.5813 291.325 38.0625H293.325C293.325 32.3562 292.368 27.1905 290.435 22.5818L288.59 23.3557ZM291.325 38.0625C291.325 43.257 290.424 48.0496 288.633 52.4512L290.486 53.205C292.382 48.5441 293.325 43.493 293.325 38.0625H291.325ZM288.634 52.449C286.851 56.8008 284.132 60.5807 280.463 63.7947L281.781 65.2991C285.674 61.8881 288.58 57.8555 290.485 53.2073L288.634 52.449ZM280.466 63.7916C276.806 66.9683 272.15 69.4878 266.47 71.33L267.087 73.2325C272.969 71.3247 277.875 68.688 281.777 65.3022L280.466 63.7916ZM266.474 71.3285C260.815 73.1333 254.11 74.0469 246.341 74.0469V76.0469C254.259 76.0469 261.179 75.1167 267.082 73.234L266.474 71.3285ZM246.342 74.0469L219.389 74L219.386 76L246.339 76.0469L246.342 74.0469ZM220.387 75V1.73438H218.387V75H220.387ZM249.903 63.1562C254.422 63.1562 258.425 62.5837 261.894 61.4165L261.256 59.521C258.038 60.6038 254.259 61.1562 249.903 61.1562V63.1562ZM261.902 61.4138C265.358 60.2186 268.268 58.5264 270.605 56.321L269.232 54.8665C267.132 56.8486 264.479 58.4064 261.248 59.5237L261.902 61.4138ZM270.6 56.3258C272.966 54.1238 274.739 51.462 275.916 48.3544L274.046 47.6456C272.974 50.4755 271.371 52.8762 269.238 54.8617L270.6 56.3258ZM275.916 48.3544C277.09 45.2566 277.669 41.8217 277.669 38.0625H275.669C275.669 41.6158 275.122 44.8059 274.046 47.6456L275.916 48.3544ZM277.669 38.0625C277.669 34.3642 277.09 31.0035 275.912 27.995L274.05 28.7238C275.123 31.4653 275.669 34.5733 275.669 38.0625H277.669ZM275.914 27.9984C274.733 24.9492 272.956 22.362 270.583 20.2526L269.254 21.7474C271.381 23.638 272.979 25.957 274.049 28.7204L275.914 27.9984ZM270.594 20.2624C268.254 18.1202 265.342 16.4926 261.886 15.3621L261.264 17.2629C264.495 18.3199 267.146 19.8173 269.243 21.7376L270.594 20.2624ZM261.886 15.3621C258.419 14.2282 254.42 13.6719 249.903 13.6719V15.6719C254.261 15.6719 258.043 16.2093 261.264 17.2629L261.886 15.3621ZM249.903 13.6719H234.247V15.6719H249.903V13.6719ZM233.247 14.6719V62.1562H235.247V14.6719H233.247ZM234.247 63.1562H249.903V61.1562H234.247V63.1562ZM298.156 1.73438V0.734375H297.156V1.73438H298.156ZM313.109 1.73438H314.109V0.734375H313.109V1.73438ZM313.109 75V76H314.109V75H313.109ZM298.156 75H297.156V76H298.156V75ZM298.156 2.73438H313.109V0.734375H298.156V2.73438ZM312.109 1.73438V75H314.109V1.73438H312.109ZM313.109 74H298.156V76H313.109V74ZM299.156 75V1.73438H297.156V75H299.156ZM323.394 23.3438L324.31 23.7446L324.311 23.7422L323.394 23.3438ZM331.925 11.5781L332.59 12.3248L332.591 12.3245L331.925 11.5781ZM345.612 3.70312L345.28 2.76003L345.278 2.76064L345.612 3.70312ZM380.347 2.67188L380.109 3.64311L380.116 3.64481L380.347 2.67188ZM394.269 8.15625L395.123 8.67597L395.655 7.80136L394.768 7.28996L394.269 8.15625ZM387.425 19.4062L386.875 20.2414L387.741 20.8115L388.279 19.926L387.425 19.4062ZM382.972 17.1562L382.603 18.0859L382.609 18.0883L382.972 17.1562ZM377.628 15.5156L377.386 16.4858L377.395 16.4881L377.404 16.4903L377.628 15.5156ZM371.769 14.4375L371.645 15.4298L371.647 15.43L371.769 14.4375ZM353.112 15.8438L353.409 16.7987L353.417 16.7964L353.112 15.8438ZM343.691 20.7656L344.328 21.5362L344.329 21.5354L343.691 20.7656ZM337.878 28.3125L336.969 27.8965L336.967 27.9009L337.878 28.3125ZM343.925 55.7812L343.275 56.5412L343.285 56.5495L343.925 55.7812ZM353.487 60.9375L353.171 61.8862L353.181 61.8893L353.487 60.9375ZM378.847 61.0312L379.107 61.9968L379.118 61.9939L378.847 61.0312ZM384.612 59.0625L384.989 59.9888L384.996 59.9861L385.003 59.9833L384.612 59.0625ZM389.769 56.5312L390.623 56.0115L390.118 55.182L389.274 55.662L389.769 56.5312ZM396.612 67.7812L397.152 68.6233L397.975 68.0962L397.467 67.2615L396.612 67.7812ZM382.737 73.8281L383.002 74.7926L383.007 74.7911L382.737 73.8281ZM346.175 73.0781L345.848 74.0231L345.853 74.0247L346.175 73.0781ZM331.925 65.0156L331.255 65.7583L331.259 65.7613L331.925 65.0156ZM323.3 52.9219L322.375 53.3008L322.378 53.3083L323.3 52.9219ZM321.441 37.9219C321.441 32.8323 322.4 28.1104 324.31 23.7446L322.478 22.9429C320.45 27.5771 319.441 32.5739 319.441 37.9219H321.441ZM324.311 23.7422C326.221 19.3451 328.979 15.5417 332.59 12.3248L331.26 10.8314C327.434 14.2395 324.504 18.2799 322.477 22.9453L324.311 23.7422ZM332.591 12.3245C336.232 9.07783 340.677 6.51438 345.947 4.64561L345.278 2.76064C339.798 4.70437 335.118 7.39092 331.259 10.8317L332.591 12.3245ZM345.945 4.64622C351.226 2.78397 357.221 1.84375 363.941 1.84375V-0.15625C357.036 -0.15625 350.811 0.809776 345.28 2.76003L345.945 4.64622ZM363.941 1.84375C369.842 1.84375 375.23 2.44632 380.109 3.64309L380.585 1.70066C375.527 0.45993 369.977 -0.15625 363.941 -0.15625V1.84375ZM380.116 3.64481C385.025 4.81084 389.575 6.60405 393.769 9.02254L394.768 7.28996C390.4 4.77095 385.668 2.90791 380.578 1.69894L380.116 3.64481ZM393.414 7.63653L386.571 18.8865L388.279 19.926L395.123 8.67597L393.414 7.63653ZM387.975 18.5711C386.625 17.6823 385.076 16.9016 383.334 16.2242L382.609 18.0883C384.243 18.7234 385.662 19.4427 386.875 20.2414L387.975 18.5711ZM383.34 16.2266C381.633 15.55 379.803 14.9887 377.852 14.541L377.404 16.4903C379.266 16.9176 380.999 17.45 382.603 18.0859L383.34 16.2266ZM377.871 14.5455C375.954 14.0663 373.96 13.6997 371.891 13.445L371.647 15.43C373.64 15.6753 375.552 16.0275 377.386 16.4858L377.871 14.5455ZM371.893 13.4452C369.853 13.1902 367.827 13.0625 365.816 13.0625V15.0625C367.742 15.0625 369.685 15.1848 371.645 15.4298L371.893 13.4452ZM365.816 13.0625C360.984 13.0625 356.644 13.6663 352.808 14.8911L353.417 16.7964C357.018 15.6462 361.147 15.0625 365.816 15.0625V13.0625ZM352.816 14.8888C348.993 16.0774 345.731 17.7745 343.052 19.9959L344.329 21.5354C346.775 19.5067 349.795 17.9226 353.409 16.7987L352.816 14.8888ZM343.053 19.9951C340.408 22.1833 338.376 24.8194 336.969 27.8965L338.787 28.7285C340.067 25.9306 341.911 23.5355 344.328 21.5362L343.053 19.9951ZM336.967 27.9009C335.59 30.9487 334.909 34.2939 334.909 37.9219H336.909C336.909 34.5498 337.541 31.4888 338.789 28.7241L336.967 27.9009ZM334.909 37.9219C334.909 41.6765 335.622 45.1471 337.061 48.3193L338.883 47.4932C337.572 44.6029 336.909 41.4172 336.909 37.9219H334.909ZM337.061 48.3193C338.498 51.4873 340.573 54.2298 343.275 56.5412L344.575 55.0213C342.09 52.8952 340.196 50.3877 338.883 47.4932L337.061 48.3193ZM343.285 56.5495C346.019 58.8283 349.321 60.6029 353.171 61.8862L353.804 59.9888C350.154 58.7721 347.081 57.1092 344.565 55.013L343.285 56.5495ZM353.181 61.8893C357.078 63.1455 361.45 63.7656 366.284 63.7656V61.7656C361.619 61.7656 357.459 61.167 353.794 59.9857L353.181 61.8893ZM366.284 63.7656C368.489 63.7656 370.678 63.6058 372.852 63.2862L372.561 61.3075C370.484 61.6129 368.392 61.7656 366.284 61.7656V63.7656ZM372.852 63.2862C375.013 62.9683 377.099 62.5387 379.107 61.9967L378.586 60.0658C376.657 60.5863 374.649 61.0004 372.561 61.3075L372.852 63.2862ZM379.118 61.9939C381.152 61.4217 383.109 60.7535 384.989 59.9888L384.236 58.1362C382.428 58.8715 380.542 59.5158 378.576 60.0686L379.118 61.9939ZM385.003 59.9833C386.879 59.1882 388.633 58.3276 390.263 57.4005L389.274 55.662C387.717 56.5474 386.034 57.3743 384.222 58.1417L385.003 59.9833ZM388.914 57.051L395.758 68.301L397.467 67.2615L390.623 56.0115L388.914 57.051ZM396.073 66.9392C392.168 69.441 387.636 71.4192 382.468 72.8651L383.007 74.7911C388.339 73.2995 393.057 71.2465 397.152 68.6233L396.073 66.9392ZM382.473 72.8636C377.316 74.2757 371.828 74.9844 366.003 74.9844V76.9844C371.991 76.9844 377.659 76.2556 383.002 74.7926L382.473 72.8636ZM366.003 74.9844C358.555 74.9844 352.059 74.026 346.497 72.1315L345.853 74.0247C351.666 76.0052 358.389 76.9844 366.003 76.9844V74.9844ZM346.502 72.1331C340.918 70.2001 336.289 67.5737 332.591 64.2699L331.259 65.7613C335.186 69.27 340.057 72.0186 345.848 74.0231L346.502 72.1331ZM332.595 64.2729C328.889 60.9317 326.102 57.0213 324.222 52.5355L322.378 53.3083C324.373 58.0725 327.336 62.2245 331.255 65.7583L332.595 64.2729ZM324.225 52.543C322.371 48.0143 321.441 43.1439 321.441 37.9219H319.441C319.441 43.3874 320.416 48.5169 322.375 53.3008L324.225 52.543ZM427.897 14.7656H428.897V13.7656H427.897V14.7656ZM400.85 14.7656H399.85V15.7656H400.85V14.7656ZM400.85 1.73438V0.734375H399.85V1.73438H400.85ZM469.803 1.73438H470.803V0.734375H469.803V1.73438ZM469.803 14.7656V15.7656H470.803V14.7656H469.803ZM442.756 14.7656V13.7656H441.756V14.7656H442.756ZM442.756 75V76H443.756V75H442.756ZM427.897 75H426.897V76H427.897V75ZM427.897 13.7656H400.85V15.7656H427.897V13.7656ZM401.85 14.7656V1.73438H399.85V14.7656H401.85ZM400.85 2.73438H469.803V0.734375H400.85V2.73438ZM468.803 1.73438V14.7656H470.803V1.73438H468.803ZM469.803 13.7656H442.756V15.7656H469.803V13.7656ZM441.756 14.7656V75H443.756V14.7656H441.756ZM442.756 74H427.897V76H442.756V74ZM428.897 75V14.7656H426.897V75H428.897ZM475.728 1.73438V0.734375H474.728V1.73438H475.728ZM490.587 1.73438H491.587V0.734375H490.587V1.73438ZM491.947 50.9531L491.003 51.283L491.004 51.2865L491.947 50.9531ZM495.978 57.4688L495.271 58.1759L495.277 58.182L495.978 57.4688ZM502.681 61.5469L502.348 62.4899L502.358 62.4933L502.681 61.5469ZM521.197 61.5469L521.52 62.4933L521.526 62.4911L521.197 61.5469ZM527.9 57.4688L527.199 56.7555L527.193 56.7616L527.9 57.4688ZM531.978 50.9531L532.921 51.2866L532.922 51.283L531.978 50.9531ZM533.338 1.73438V0.734375H532.338V1.73438H533.338ZM548.197 1.73438H549.197V0.734375H548.197V1.73438ZM527.291 73.6406L526.969 72.6939L526.966 72.6946L527.291 73.6406ZM496.587 73.6406L496.263 74.5866L496.265 74.5873L496.587 73.6406ZM475.728 2.73438H490.587V0.734375H475.728V2.73438ZM489.587 1.73438V42.0938H491.587V1.73438H489.587ZM489.587 42.0938C489.587 45.4962 490.053 48.5639 491.003 51.283L492.891 50.6233C492.028 48.1548 491.587 45.3163 491.587 42.0938H489.587ZM491.004 51.2865C491.956 53.9783 493.376 56.281 495.271 58.1759L496.685 56.7616C495.018 55.094 493.75 53.0529 492.89 50.6197L491.004 51.2865ZM495.277 58.182C497.205 60.0765 499.569 61.509 502.348 62.4899L503.014 60.6039C500.481 59.7098 498.376 58.4235 496.679 56.7555L495.277 58.182ZM502.358 62.4933C505.141 63.4428 508.349 63.9062 511.963 63.9062V61.9062C508.514 61.9062 505.534 61.4634 503.004 60.6004L502.358 62.4933ZM511.963 63.9062C515.546 63.9062 518.737 63.4426 521.52 62.4933L520.874 60.6004C518.344 61.4637 515.379 61.9062 511.963 61.9062V63.9062ZM521.526 62.4911C524.337 61.5105 526.706 60.0766 528.607 58.1759L527.193 56.7616C525.531 58.4234 523.431 59.7083 520.867 60.6027L521.526 62.4911ZM528.601 58.182C530.529 56.2868 531.968 53.9822 532.921 51.2865L531.035 50.6197C530.176 53.049 528.896 55.0882 527.199 56.7555L528.601 58.182ZM532.922 51.283C533.872 48.5639 534.338 45.4962 534.338 42.0938H532.338C532.338 45.3163 531.897 48.1548 531.034 50.6233L532.922 51.283ZM534.338 42.0938V1.73438H532.338V42.0938H534.338ZM533.338 2.73438H548.197V0.734375H533.338V2.73438ZM547.197 1.73438V43.875H549.197V1.73438H547.197ZM547.197 43.875C547.197 48.5735 546.404 52.8167 544.835 56.6185L546.684 57.3815C548.365 53.3083 549.197 48.8015 549.197 43.875H547.197ZM544.835 56.6185C543.265 60.4221 540.991 63.6739 538.009 66.3851L539.354 67.8649C542.559 64.9511 545.003 61.4529 546.684 57.3815L544.835 56.6185ZM538.009 66.3851C535.029 69.0935 531.356 71.2008 526.969 72.6939L527.613 74.5873C532.225 73.0179 536.146 70.7815 539.354 67.8649L538.009 66.3851ZM526.966 72.6946C522.622 74.1833 517.625 74.9375 511.963 74.9375V76.9375C517.8 76.9375 523.022 76.1604 527.615 74.5866L526.966 72.6946ZM511.963 74.9375C506.3 74.9375 501.287 74.1834 496.91 72.6939L496.265 74.5873C500.888 76.1604 506.125 76.9375 511.963 76.9375V74.9375ZM496.912 72.6946C492.555 71.2018 488.897 69.0946 485.916 66.3851L484.571 67.8649C487.778 70.7804 491.682 73.0169 496.263 74.5866L496.912 72.6946ZM485.916 66.3851C482.934 63.6739 480.66 60.4221 479.09 56.6185L477.241 57.3815C478.922 61.4529 481.366 64.9511 484.571 67.8649L485.916 66.3851ZM479.09 56.6185C477.521 52.8167 476.728 48.5735 476.728 43.875H474.728C474.728 48.8015 475.56 53.3083 477.241 57.3815L479.09 56.6185ZM476.728 43.875V1.73438H474.728V43.875H476.728ZM559.184 1.73438V0.734375H558.184V1.73438H559.184ZM574.044 1.73438L574.752 1.02851L574.459 0.734375H574.044V1.73438ZM600.669 28.4531L599.96 29.159L600.669 29.8698L601.377 29.159L600.669 28.4531ZM627.294 1.73438V0.734375H626.879L626.585 1.02851L627.294 1.73438ZM642.153 1.73438H643.153V0.734375H642.153V1.73438ZM642.153 75V76H643.153V75H642.153ZM627.294 75H626.294V76H627.294V75ZM627.294 22.3125H628.294V19.9612L626.6 21.5922L627.294 22.3125ZM600.669 47.9531L599.975 48.6734L600.669 49.3414L601.362 48.6734L600.669 47.9531ZM574.044 22.3125L574.737 21.5922L573.044 19.9612V22.3125H574.044ZM574.044 75V76H575.044V75H574.044ZM559.184 75H558.184V76H559.184V75ZM559.184 2.73438H574.044V0.734375H559.184V2.73438ZM573.335 2.44024L599.96 29.159L601.377 27.7473L574.752 1.02851L573.335 2.44024ZM601.377 29.159L628.002 2.44024L626.585 1.02851L599.96 27.7473L601.377 29.159ZM627.294 2.73438H642.153V0.734375H627.294V2.73438ZM641.153 1.73438V75H643.153V1.73438H641.153ZM642.153 74H627.294V76H642.153V74ZM628.294 75V22.3125H626.294V75H628.294ZM626.6 21.5922L599.975 47.2328L601.362 48.6734L627.987 23.0328L626.6 21.5922ZM601.362 47.2328L574.737 21.5922L573.35 23.0328L599.975 48.6734L601.362 47.2328ZM573.044 22.3125V75H575.044V22.3125H573.044ZM574.044 74H559.184V76H574.044V74ZM560.184 75V1.73438H558.184V75H560.184ZM677.722 1.73438V0.734375H676.722V1.73438H677.722ZM692.581 1.73438H693.581V0.734375H692.581V1.73438ZM693.941 50.9531L692.997 51.283L692.998 51.2865L693.941 50.9531ZM697.972 57.4688L697.265 58.1759L697.271 58.182L697.972 57.4688ZM704.675 61.5469L704.342 62.4899L704.352 62.4933L704.675 61.5469ZM723.191 61.5469L723.514 62.4933L723.52 62.4911L723.191 61.5469ZM729.894 57.4688L729.193 56.7555L729.187 56.7616L729.894 57.4688ZM733.972 50.9531L734.915 51.2866L734.916 51.283L733.972 50.9531ZM735.331 1.73438V0.734375H734.331V1.73438H735.331ZM750.191 1.73438H751.191V0.734375H750.191V1.73438ZM729.284 73.6406L728.962 72.6939L728.96 72.6946L729.284 73.6406ZM698.581 73.6406L698.257 74.5866L698.259 74.5873L698.581 73.6406ZM677.722 2.73438H692.581V0.734375H677.722V2.73438ZM691.581 1.73438V42.0938H693.581V1.73438H691.581ZM691.581 42.0938C691.581 45.4962 692.047 48.5639 692.997 51.283L694.885 50.6233C694.022 48.1548 693.581 45.3163 693.581 42.0938H691.581ZM692.998 51.2865C693.95 53.9783 695.37 56.281 697.265 58.1759L698.679 56.7616C697.011 55.094 695.744 53.0529 694.883 50.6197L692.998 51.2865ZM697.271 58.182C699.199 60.0765 701.563 61.509 704.342 62.4899L705.008 60.6039C702.474 59.7098 700.37 58.4235 698.673 56.7555L697.271 58.182ZM704.352 62.4933C707.135 63.4428 710.342 63.9062 713.956 63.9062V61.9062C710.508 61.9062 707.527 61.4634 704.998 60.6004L704.352 62.4933ZM713.956 63.9062C717.54 63.9062 720.731 63.4426 723.513 62.4933L722.868 60.6004C720.337 61.4637 717.372 61.9062 713.956 61.9062V63.9062ZM723.52 62.4911C726.331 61.5105 728.7 60.0766 730.601 58.1759L729.187 56.7616C727.525 58.4234 725.425 59.7083 722.861 60.6027L723.52 62.4911ZM730.595 58.182C732.523 56.2868 733.961 53.9822 734.915 51.2865L733.029 50.6197C732.17 53.049 730.889 55.0882 729.193 56.7555L730.595 58.182ZM734.916 51.283C735.866 48.5639 736.331 45.4962 736.331 42.0938H734.331C734.331 45.3163 733.89 48.1548 733.028 50.6233L734.916 51.283ZM736.331 42.0938V1.73438H734.331V42.0938H736.331ZM735.331 2.73438H750.191V0.734375H735.331V2.73438ZM749.191 1.73438V43.875H751.191V1.73438H749.191ZM749.191 43.875C749.191 48.5735 748.398 52.8167 746.829 56.6185L748.677 57.3815C750.359 53.3083 751.191 48.8015 751.191 43.875H749.191ZM746.829 56.6185C745.259 60.4221 742.985 63.6739 740.002 66.3851L741.348 67.8649C744.553 64.9511 746.997 61.4529 748.677 57.3815L746.829 56.6185ZM740.002 66.3851C737.023 69.0935 733.35 71.2008 728.962 72.6939L729.607 74.5873C734.219 73.0179 738.139 70.7815 741.348 67.8649L740.002 66.3851ZM728.96 72.6946C724.616 74.1833 719.619 74.9375 713.956 74.9375V76.9375C719.793 76.9375 725.016 76.1604 729.609 74.5866L728.96 72.6946ZM713.956 74.9375C708.294 74.9375 703.281 74.1834 698.903 72.6939L698.259 74.5873C702.882 76.1604 708.119 76.9375 713.956 76.9375V74.9375ZM698.905 72.6946C694.549 71.2018 690.891 69.0946 687.91 66.3851L686.565 67.8649C689.772 70.7804 693.676 73.0169 698.257 74.5866L698.905 72.6946ZM687.91 66.3851C684.928 63.6739 682.653 60.4221 681.084 56.6185L679.235 57.3815C680.915 61.4529 683.36 64.9511 686.565 67.8649L687.91 66.3851ZM681.084 56.6185C679.515 52.8167 678.722 48.5735 678.722 43.875H676.722C676.722 48.8015 677.554 53.3083 679.235 57.3815L681.084 56.6185ZM678.722 43.875V1.73438H676.722V43.875H678.722ZM783.209 14.7656H784.209V13.7656H783.209V14.7656ZM756.162 14.7656H755.162V15.7656H756.162V14.7656ZM756.162 1.73438V0.734375H755.162V1.73438H756.162ZM825.116 1.73438H826.116V0.734375H825.116V1.73438ZM825.116 14.7656V15.7656H826.116V14.7656H825.116ZM798.069 14.7656V13.7656H797.069V14.7656H798.069ZM798.069 75V76H799.069V75H798.069ZM783.209 75H782.209V76H783.209V75ZM783.209 13.7656H756.162V15.7656H783.209V13.7656ZM757.162 14.7656V1.73438H755.162V14.7656H757.162ZM756.162 2.73438H825.116V0.734375H756.162V2.73438ZM824.116 1.73438V14.7656H826.116V1.73438H824.116ZM825.116 13.7656H798.069V15.7656H825.116V13.7656ZM797.069 14.7656V75H799.069V14.7656H797.069ZM798.069 74H783.209V76H798.069V74ZM784.209 75V14.7656H782.209V75H784.209ZM880.559 14.7656H881.559V13.7656H880.559V14.7656ZM853.513 14.7656H852.513V15.7656H853.513V14.7656ZM853.513 1.73438V0.734375H852.513V1.73438H853.513ZM922.466 1.73438H923.466V0.734375H922.466V1.73438ZM922.466 14.7656V15.7656H923.466V14.7656H922.466ZM895.419 14.7656V13.7656H894.419V14.7656H895.419ZM895.419 75V76H896.419V75H895.419ZM880.559 75H879.559V76H880.559V75ZM880.559 13.7656H853.513V15.7656H880.559V13.7656ZM854.513 14.7656V1.73438H852.513V14.7656H854.513ZM853.513 2.73438H922.466V0.734375H853.513V2.73438ZM921.466 1.73438V14.7656H923.466V1.73438H921.466ZM922.466 13.7656H895.419V15.7656H922.466V13.7656ZM894.419 14.7656V75H896.419V14.7656H894.419ZM895.419 74H880.559V76H895.419V74ZM881.559 75V14.7656H879.559V75H881.559ZM929.281 1.73438V0.734375H928.281V1.73438H929.281ZM944.234 1.73438H945.234V0.734375H944.234V1.73438ZM944.234 75V76H945.234V75H944.234ZM929.281 75H928.281V76H929.281V75ZM929.281 2.73438H944.234V0.734375H929.281V2.73438ZM943.234 1.73438V75H945.234V1.73438H943.234ZM944.234 74H929.281V76H944.234V74ZM930.281 75V1.73438H928.281V75H930.281ZM955.925 1.73438V0.734375H954.925V1.73438H955.925ZM970.784 1.73438L971.248 0.848473L971.03 0.734375H970.784V1.73438ZM1016.44 25.6406L1015.98 26.5265L1017.44 27.293V25.6406H1016.44ZM1016.44 1.73438V0.734375H1015.44V1.73438H1016.44ZM1031.3 1.73438H1032.3V0.734375H1031.3V1.73438ZM1031.3 75V76H1032.3V75H1031.3ZM1016.44 75H1015.44V76H1016.44V75ZM1016.44 41.3906H1017.44V40.7838L1016.9 40.5036L1016.44 41.3906ZM970.784 17.625L971.246 16.738L969.784 15.9771V17.625H970.784ZM970.784 75V76H971.784V75H970.784ZM955.925 75H954.925V76H955.925V75ZM955.925 2.73438H970.784V0.734375H955.925V2.73438ZM970.32 2.62028L1015.98 26.5265L1016.9 24.7547L971.248 0.848473L970.32 2.62028ZM1017.44 25.6406V1.73438H1015.44V25.6406H1017.44ZM1016.44 2.73438H1031.3V0.734375H1016.44V2.73438ZM1030.3 1.73438V75H1032.3V1.73438H1030.3ZM1031.3 74H1016.44V76H1031.3V74ZM1017.44 75V41.3906H1015.44V75H1017.44ZM1016.9 40.5036L971.246 16.738L970.323 18.512L1015.98 42.2776L1016.9 40.5036ZM969.784 17.625V75H971.784V17.625H969.784ZM970.784 74H955.925V76H970.784V74ZM956.925 75V1.73438H954.925V75H956.925ZM1043.32 23.3438L1044.23 23.7446L1044.24 23.7422L1043.32 23.3438ZM1051.85 11.5781L1052.52 12.3248L1052.52 12.3245L1051.85 11.5781ZM1065.54 3.70312L1065.2 2.76003L1065.2 2.76064L1065.54 3.70312ZM1100.27 2.67188L1100.03 3.64311L1100.04 3.64481L1100.27 2.67188ZM1114.19 8.15625L1115.05 8.67597L1115.58 7.80136L1114.69 7.28996L1114.19 8.15625ZM1107.35 19.4062L1106.8 20.2414L1107.67 20.8115L1108.2 19.926L1107.35 19.4062ZM1102.9 17.1562L1102.53 18.0859L1102.53 18.0883L1102.9 17.1562ZM1097.55 15.5156L1097.31 16.4858L1097.32 16.4881L1097.33 16.4903L1097.55 15.5156ZM1091.69 14.4375L1091.57 15.4298L1091.57 15.43L1091.69 14.4375ZM1073.04 15.8438L1073.33 16.7987L1073.34 16.7964L1073.04 15.8438ZM1063.62 20.7656L1064.25 21.5362L1064.25 21.5354L1063.62 20.7656ZM1057.8 28.3125L1056.89 27.8965L1056.89 27.9009L1057.8 28.3125ZM1063.85 55.7812L1063.2 56.5412L1063.21 56.5495L1063.85 55.7812ZM1073.41 60.9375L1073.1 61.8862L1073.11 61.8893L1073.41 60.9375ZM1098.77 61.0312L1099.03 61.9968L1099.04 61.9939L1098.77 61.0312ZM1104.54 59.0625L1104.91 59.9888L1104.92 59.9861L1104.93 59.9833L1104.54 59.0625ZM1109.69 56.5312L1110.55 56.0115L1110.04 55.182L1109.2 55.662L1109.69 56.5312ZM1116.54 67.7812L1117.08 68.6233L1117.9 68.0962L1117.39 67.2615L1116.54 67.7812ZM1102.66 73.8281L1102.93 74.7926L1102.93 74.7911L1102.66 73.8281ZM1066.1 73.0781L1065.77 74.0231L1065.78 74.0247L1066.1 73.0781ZM1051.85 65.0156L1051.18 65.7583L1051.18 65.7613L1051.85 65.0156ZM1043.22 52.9219L1042.3 53.3008L1042.3 53.3083L1043.22 52.9219ZM1041.37 37.9219C1041.37 32.8323 1042.32 28.1104 1044.23 23.7446L1042.4 22.9429C1040.38 27.5771 1039.37 32.5739 1039.37 37.9219H1041.37ZM1044.24 23.7422C1046.15 19.3451 1048.9 15.5417 1052.52 12.3248L1051.18 10.8314C1047.36 14.2395 1044.43 18.2799 1042.4 22.9453L1044.24 23.7422ZM1052.52 12.3245C1056.16 9.07783 1060.6 6.51438 1065.87 4.64561L1065.2 2.76064C1059.72 4.70437 1055.04 7.39092 1051.18 10.8317L1052.52 12.3245ZM1065.87 4.64622C1071.15 2.78397 1077.15 1.84375 1083.87 1.84375V-0.15625C1076.96 -0.15625 1070.74 0.809776 1065.2 2.76003L1065.87 4.64622ZM1083.87 1.84375C1089.77 1.84375 1095.15 2.44632 1100.03 3.64309L1100.51 1.70066C1095.45 0.45993 1089.9 -0.15625 1083.87 -0.15625V1.84375ZM1100.04 3.64481C1104.95 4.81084 1109.5 6.60405 1113.69 9.02254L1114.69 7.28996C1110.32 4.77095 1105.59 2.90791 1100.5 1.69894L1100.04 3.64481ZM1113.34 7.63653L1106.5 18.8865L1108.2 19.926L1115.05 8.67597L1113.34 7.63653ZM1107.9 18.5711C1106.55 17.6823 1105 16.9016 1103.26 16.2242L1102.53 18.0883C1104.17 18.7234 1105.59 19.4427 1106.8 20.2414L1107.9 18.5711ZM1103.27 16.2266C1101.56 15.55 1099.73 14.9887 1097.78 14.541L1097.33 16.4903C1099.19 16.9176 1100.92 17.45 1102.53 18.0859L1103.27 16.2266ZM1097.8 14.5455C1095.88 14.0663 1093.89 13.6997 1091.82 13.445L1091.57 15.43C1093.56 15.6753 1095.48 16.0275 1097.31 16.4858L1097.8 14.5455ZM1091.82 13.4452C1089.78 13.1902 1087.75 13.0625 1085.74 13.0625V15.0625C1087.67 15.0625 1089.61 15.1848 1091.57 15.4298L1091.82 13.4452ZM1085.74 13.0625C1080.91 13.0625 1076.57 13.6663 1072.73 14.8911L1073.34 16.7964C1076.94 15.6462 1081.07 15.0625 1085.74 15.0625V13.0625ZM1072.74 14.8888C1068.92 16.0774 1065.66 17.7745 1062.98 19.9959L1064.25 21.5354C1066.7 19.5067 1069.72 17.9226 1073.33 16.7987L1072.74 14.8888ZM1062.98 19.9951C1060.33 22.1833 1058.3 24.8194 1056.89 27.8965L1058.71 28.7285C1059.99 25.9306 1061.84 23.5355 1064.25 21.5362L1062.98 19.9951ZM1056.89 27.9009C1055.52 30.9487 1054.83 34.2939 1054.83 37.9219H1056.83C1056.83 34.5498 1057.47 31.4888 1058.71 28.7241L1056.89 27.9009ZM1054.83 37.9219C1054.83 41.6765 1055.55 45.1471 1056.99 48.3193L1058.81 47.4932C1057.5 44.6029 1056.83 41.4172 1056.83 37.9219H1054.83ZM1056.99 48.3193C1058.42 51.4873 1060.5 54.2298 1063.2 56.5412L1064.5 55.0213C1062.01 52.8952 1060.12 50.3877 1058.81 47.4932L1056.99 48.3193ZM1063.21 56.5495C1065.94 58.8283 1069.25 60.6029 1073.1 61.8862L1073.73 59.9888C1070.08 58.7721 1067.01 57.1092 1064.49 55.013L1063.21 56.5495ZM1073.11 61.8893C1077 63.1455 1081.38 63.7656 1086.21 63.7656V61.7656C1081.54 61.7656 1077.38 61.167 1073.72 59.9857L1073.11 61.8893ZM1086.21 63.7656C1088.41 63.7656 1090.6 63.6058 1092.78 63.2862L1092.49 61.3075C1090.41 61.6129 1088.32 61.7656 1086.21 61.7656V63.7656ZM1092.78 63.2862C1094.94 62.9683 1097.02 62.5387 1099.03 61.9967L1098.51 60.0658C1096.58 60.5863 1094.57 61.0004 1092.49 61.3075L1092.78 63.2862ZM1099.04 61.9939C1101.08 61.4217 1103.03 60.7535 1104.91 59.9888L1104.16 58.1362C1102.35 58.8715 1100.47 59.5158 1098.5 60.0686L1099.04 61.9939ZM1104.93 59.9833C1106.8 59.1882 1108.56 58.3276 1110.19 57.4005L1109.2 55.662C1107.64 56.5474 1105.96 57.3743 1104.15 58.1417L1104.93 59.9833ZM1108.84 57.051L1115.68 68.301L1117.39 67.2615L1110.55 56.0115L1108.84 57.051ZM1116 66.9392C1112.09 69.441 1107.56 71.4192 1102.39 72.8651L1102.93 74.7911C1108.26 73.2995 1112.98 71.2465 1117.08 68.6233L1116 66.9392ZM1102.4 72.8636C1097.24 74.2757 1091.75 74.9844 1085.93 74.9844V76.9844C1091.92 76.9844 1097.58 76.2556 1102.93 74.7926L1102.4 72.8636ZM1085.93 74.9844C1078.48 74.9844 1071.98 74.026 1066.42 72.1315L1065.78 74.0247C1071.59 76.0052 1078.31 76.9844 1085.93 76.9844V74.9844ZM1066.43 72.1331C1060.84 70.2001 1056.21 67.5737 1052.52 64.2699L1051.18 65.7613C1055.11 69.27 1059.98 72.0186 1065.77 74.0231L1066.43 72.1331ZM1052.52 64.2729C1048.81 60.9317 1046.03 57.0213 1044.15 52.5355L1042.3 53.3083C1044.3 58.0725 1047.26 62.2245 1051.18 65.7583L1052.52 64.2729ZM1044.15 52.543C1042.3 48.0143 1041.37 43.1439 1041.37 37.9219H1039.37C1039.37 43.3874 1040.34 48.5169 1042.3 53.3008L1044.15 52.543ZM1123.87 1.73438V0.734375H1122.87V1.73438H1123.87ZM1138.82 1.73438H1139.82V0.734375H1138.82V1.73438ZM1138.82 75V76H1139.82V75H1138.82ZM1123.87 75H1122.87V76H1123.87V75ZM1123.87 2.73438H1138.82V0.734375H1123.87V2.73438ZM1137.82 1.73438V75H1139.82V1.73438H1137.82ZM1138.82 74H1123.87V76H1138.82V74ZM1124.87 75V1.73438H1122.87V75H1124.87ZM1150.61 1.73438V0.734375H1149.61V1.73438H1150.61ZM1212.25 11.5312L1211.61 12.299L1211.61 12.3046L1212.25 11.5312ZM1220.73 22.9688L1219.81 23.3479L1219.81 23.3557L1220.73 22.9688ZM1220.78 52.8281L1221.7 53.2073L1221.7 53.205L1220.78 52.8281ZM1212.34 64.5469L1213 65.3022L1213 65.2991L1212.34 64.5469ZM1198 72.2812L1198.3 73.234L1198.31 73.2325L1198 72.2812ZM1177.56 75.0469L1177.56 76.0469H1177.56V75.0469ZM1150.61 75H1149.61V75.9983L1150.6 76L1150.61 75ZM1192.79 60.4688L1193.11 61.4166L1193.12 61.4138L1192.79 60.4688ZM1201.14 55.5938L1200.46 54.8617L1200.45 54.8665L1201.14 55.5938ZM1206.2 28.3594L1205.27 28.7204L1205.27 28.7238L1206.2 28.3594ZM1201.14 21L1200.46 21.7376L1200.47 21.7425L1200.47 21.7474L1201.14 21ZM1165.47 14.6719V13.6719H1164.47V14.6719H1165.47ZM1165.47 62.1562H1164.47V63.1562H1165.47V62.1562ZM1150.61 2.73438H1177.47V0.734375H1150.61V2.73438ZM1177.47 2.73438C1185.24 2.73438 1191.96 3.57126 1197.62 5.22557L1198.18 3.30568C1192.29 1.58499 1185.38 0.734375 1177.47 0.734375V2.73438ZM1197.62 5.22557C1203.3 6.88287 1207.95 9.24826 1211.61 12.299L1212.89 10.7635C1208.98 7.50174 1204.07 5.02338 1198.18 3.30568L1197.62 5.22557ZM1211.61 12.3046C1215.3 15.3259 1218.03 19.0036 1219.81 23.3479L1221.66 22.5896C1219.75 17.9339 1216.82 13.9866 1212.88 10.7579L1211.61 12.3046ZM1219.81 23.3557C1221.63 27.6845 1222.54 32.5813 1222.54 38.0625H1224.54C1224.54 32.3562 1223.59 27.1905 1221.65 22.5818L1219.81 23.3557ZM1222.54 38.0625C1222.54 43.257 1221.64 48.0496 1219.85 52.4512L1221.7 53.205C1223.6 48.5441 1224.54 43.493 1224.54 38.0625H1222.54ZM1219.85 52.449C1218.07 56.8008 1215.35 60.5807 1211.68 63.7947L1213 65.2991C1216.89 61.8881 1219.8 57.8555 1221.7 53.2073L1219.85 52.449ZM1211.69 63.7916C1208.02 66.9683 1203.37 69.4878 1197.69 71.33L1198.31 73.2325C1204.19 71.3247 1209.09 68.688 1213 65.3022L1211.69 63.7916ZM1197.69 71.3285C1192.03 73.1333 1185.33 74.0469 1177.56 74.0469V76.0469C1185.48 76.0469 1192.4 75.1167 1198.3 73.234L1197.69 71.3285ZM1177.56 74.0469L1150.61 74L1150.6 76L1177.56 76.0469L1177.56 74.0469ZM1151.61 75V1.73438H1149.61V75H1151.61ZM1181.12 63.1562C1185.64 63.1562 1189.64 62.5837 1193.11 61.4165L1192.47 59.521C1189.26 60.6038 1185.48 61.1562 1181.12 61.1562V63.1562ZM1193.12 61.4138C1196.58 60.2186 1199.49 58.5264 1201.82 56.321L1200.45 54.8665C1198.35 56.8486 1195.7 58.4064 1192.47 59.5237L1193.12 61.4138ZM1201.82 56.3258C1204.18 54.1238 1205.96 51.462 1207.14 48.3544L1205.26 47.6456C1204.19 50.4755 1202.59 52.8762 1200.46 54.8617L1201.82 56.3258ZM1207.14 48.3544C1208.31 45.2566 1208.89 41.8217 1208.89 38.0625H1206.89C1206.89 41.6158 1206.34 44.8059 1205.26 47.6456L1207.14 48.3544ZM1208.89 38.0625C1208.89 34.3642 1208.31 31.0035 1207.13 27.995L1205.27 28.7238C1206.34 31.4653 1206.89 34.5733 1206.89 38.0625H1208.89ZM1207.13 27.9984C1205.95 24.9492 1204.17 22.362 1201.8 20.2526L1200.47 21.7474C1202.6 23.638 1204.2 25.957 1205.27 28.7204L1207.13 27.9984ZM1201.81 20.2624C1199.47 18.1202 1196.56 16.4926 1193.1 15.3621L1192.48 17.2629C1195.71 18.3199 1198.36 19.8173 1200.46 21.7376L1201.81 20.2624ZM1193.1 15.3621C1189.64 14.2282 1185.64 13.6719 1181.12 13.6719V15.6719C1185.48 15.6719 1189.26 16.2093 1192.48 17.2629L1193.1 15.3621ZM1181.12 13.6719H1165.47V15.6719H1181.12V13.6719ZM1164.47 14.6719V62.1562H1166.47V14.6719H1164.47ZM1165.47 63.1562H1181.12V61.1562H1165.47V63.1562ZM1228.48 1.73438V0.734375H1227.48V1.73438H1228.48ZM1243.34 1.73438H1244.34V0.734375H1243.34V1.73438ZM1244.7 50.9531L1243.76 51.283L1243.76 51.2865L1244.7 50.9531ZM1248.73 57.4688L1248.03 58.1759L1248.03 58.182L1248.73 57.4688ZM1255.44 61.5469L1255.1 62.4899L1255.11 62.4933L1255.44 61.5469ZM1273.95 61.5469L1274.28 62.4933L1274.28 62.4911L1273.95 61.5469ZM1280.66 57.4688L1279.96 56.7555L1279.95 56.7616L1280.66 57.4688ZM1284.73 50.9531L1285.68 51.2866L1285.68 51.283L1284.73 50.9531ZM1286.09 1.73438V0.734375H1285.09V1.73438H1286.09ZM1300.95 1.73438H1301.95V0.734375H1300.95V1.73438ZM1280.05 73.6406L1279.72 72.6939L1279.72 72.6946L1280.05 73.6406ZM1249.34 73.6406L1249.02 74.5866L1249.02 74.5873L1249.34 73.6406ZM1228.48 2.73438H1243.34V0.734375H1228.48V2.73438ZM1242.34 1.73438V42.0938H1244.34V1.73438H1242.34ZM1242.34 42.0938C1242.34 45.4962 1242.81 48.5639 1243.76 51.283L1245.65 50.6233C1244.78 48.1548 1244.34 45.3163 1244.34 42.0938H1242.34ZM1243.76 51.2865C1244.71 53.9783 1246.13 56.281 1248.03 58.1759L1249.44 56.7616C1247.77 55.094 1246.51 53.0529 1245.65 50.6197L1243.76 51.2865ZM1248.03 58.182C1249.96 60.0765 1252.33 61.509 1255.1 62.4899L1255.77 60.6039C1253.24 59.7098 1251.13 58.4235 1249.44 56.7555L1248.03 58.182ZM1255.11 62.4933C1257.9 63.4428 1261.1 63.9062 1264.72 63.9062V61.9062C1261.27 61.9062 1258.29 61.4634 1255.76 60.6004L1255.11 62.4933ZM1264.72 63.9062C1268.3 63.9062 1271.49 63.4426 1274.28 62.4933L1273.63 60.6004C1271.1 61.4637 1268.13 61.9062 1264.72 61.9062V63.9062ZM1274.28 62.4911C1277.09 61.5105 1279.46 60.0766 1281.36 58.1759L1279.95 56.7616C1278.29 58.4234 1276.19 59.7083 1273.62 60.6027L1274.28 62.4911ZM1281.36 58.182C1283.29 56.2868 1284.72 53.9822 1285.68 51.2865L1283.79 50.6197C1282.93 53.049 1281.65 55.0882 1279.96 56.7555L1281.36 58.182ZM1285.68 51.283C1286.63 48.5639 1287.09 45.4962 1287.09 42.0938H1285.09C1285.09 45.3163 1284.65 48.1548 1283.79 50.6233L1285.68 51.283ZM1287.09 42.0938V1.73438H1285.09V42.0938H1287.09ZM1286.09 2.73438H1300.95V0.734375H1286.09V2.73438ZM1299.95 1.73438V43.875H1301.95V1.73438H1299.95ZM1299.95 43.875C1299.95 48.5735 1299.16 52.8167 1297.59 56.6185L1299.44 57.3815C1301.12 53.3083 1301.95 48.8015 1301.95 43.875H1299.95ZM1297.59 56.6185C1296.02 60.4221 1293.75 63.6739 1290.76 66.3851L1292.11 67.8649C1295.32 64.9511 1297.76 61.4529 1299.44 57.3815L1297.59 56.6185ZM1290.76 66.3851C1287.79 69.0935 1284.11 71.2008 1279.72 72.6939L1280.37 74.5873C1284.98 73.0179 1288.9 70.7815 1292.11 67.8649L1290.76 66.3851ZM1279.72 72.6946C1275.38 74.1833 1270.38 74.9375 1264.72 74.9375V76.9375C1270.56 76.9375 1275.78 76.1604 1280.37 74.5866L1279.72 72.6946ZM1264.72 74.9375C1259.06 74.9375 1254.04 74.1834 1249.67 72.6939L1249.02 74.5873C1253.64 76.1604 1258.88 76.9375 1264.72 76.9375V74.9375ZM1249.67 72.6946C1245.31 71.2018 1241.65 69.0946 1238.67 66.3851L1237.33 67.8649C1240.53 70.7804 1244.44 73.0169 1249.02 74.5866L1249.67 72.6946ZM1238.67 66.3851C1235.69 63.6739 1233.42 60.4221 1231.85 56.6185L1230 57.3815C1231.68 61.4529 1234.12 64.9511 1237.33 67.8649L1238.67 66.3851ZM1231.85 56.6185C1230.28 52.8167 1229.48 48.5735 1229.48 43.875H1227.48C1227.48 48.8015 1228.32 53.3083 1230 57.3815L1231.85 56.6185ZM1229.48 43.875V1.73438H1227.48V43.875H1229.48ZM1311.8 1.73438V0.734375H1310.8V1.73438H1311.8ZM1326.66 1.73438L1327.12 0.848473L1326.91 0.734375H1326.66V1.73438ZM1372.32 25.6406L1371.85 26.5265L1373.32 27.293V25.6406H1372.32ZM1372.32 1.73438V0.734375H1371.32V1.73438H1372.32ZM1387.18 1.73438H1388.18V0.734375H1387.18V1.73438ZM1387.18 75V76H1388.18V75H1387.18ZM1372.32 75H1371.32V76H1372.32V75ZM1372.32 41.3906H1373.32V40.7838L1372.78 40.5036L1372.32 41.3906ZM1326.66 17.625L1327.12 16.738L1325.66 15.9771V17.625H1326.66ZM1326.66 75V76H1327.66V75H1326.66ZM1311.8 75H1310.8V76H1311.8V75ZM1311.8 2.73438H1326.66V0.734375H1311.8V2.73438ZM1326.2 2.62028L1371.85 26.5265L1372.78 24.7547L1327.12 0.848473L1326.2 2.62028ZM1373.32 25.6406V1.73438H1371.32V25.6406H1373.32ZM1372.32 2.73438H1387.18V0.734375H1372.32V2.73438ZM1386.18 1.73438V75H1388.18V1.73438H1386.18ZM1387.18 74H1372.32V76H1387.18V74ZM1373.32 75V41.3906H1371.32V75H1373.32ZM1372.78 40.5036L1327.12 16.738L1326.2 18.512L1371.85 42.2776L1372.78 40.5036ZM1325.66 17.625V75H1327.66V17.625H1325.66ZM1326.66 74H1311.8V76H1326.66V74ZM1312.8 75V1.73438H1310.8V75H1312.8ZM1422.77 14.7656H1423.77V13.7656H1422.77V14.7656ZM1395.72 14.7656H1394.72V15.7656H1395.72V14.7656ZM1395.72 1.73438V0.734375H1394.72V1.73438H1395.72ZM1464.68 1.73438H1465.68V0.734375H1464.68V1.73438ZM1464.68 14.7656V15.7656H1465.68V14.7656H1464.68ZM1437.63 14.7656V13.7656H1436.63V14.7656H1437.63ZM1437.63 75V76H1438.63V75H1437.63ZM1422.77 75H1421.77V76H1422.77V75ZM1422.77 13.7656H1395.72V15.7656H1422.77V13.7656ZM1396.72 14.7656V1.73438H1394.72V14.7656H1396.72ZM1395.72 2.73438H1464.68V0.734375H1395.72V2.73438ZM1463.68 1.73438V14.7656H1465.68V1.73438H1463.68ZM1464.68 13.7656H1437.63V15.7656H1464.68V13.7656ZM1436.63 14.7656V75H1438.63V14.7656H1436.63ZM1437.63 74H1422.77V76H1437.63V74ZM1423.77 75V14.7656H1421.77V75H1423.77Z" fill="#1D1D1D"/>
</svg>
