<svg width="875" height="77" viewBox="0 0 875 77" fill="none" xmlns="http://www.w3.org/2000/svg">
<path d="M27.4844 14.7651H28.4844V13.7651H27.4844V14.7651ZM0.4375 14.7651H-0.5625V15.7651H0.4375V14.7651ZM0.4375 1.73389V0.733887H-0.5625V1.73389H0.4375ZM69.3906 1.73389H70.3906V0.733887H69.3906V1.73389ZM69.3906 14.7651V15.7651H70.3906V14.7651H69.3906ZM42.3438 14.7651V13.7651H41.3438V14.7651H42.3438ZM42.3438 74.9995V75.9995H43.3438V74.9995H42.3438ZM27.4844 74.9995H26.4844V75.9995H27.4844V74.9995ZM27.4844 13.7651H0.4375V15.7651H27.4844V13.7651ZM1.4375 14.7651V1.73389H-0.5625V14.7651H1.4375ZM0.4375 2.73389H69.3906V0.733887H0.4375V2.73389ZM68.3906 1.73389V14.7651H70.3906V1.73389H68.3906ZM69.3906 13.7651H42.3438V15.7651H69.3906V13.7651ZM41.3438 14.7651V74.9995H43.3438V14.7651H41.3438ZM42.3438 73.9995H27.4844V75.9995H42.3438V73.9995ZM28.4844 74.9995V14.7651H26.4844V74.9995H28.4844ZM78.0813 1.73389V0.733887H77.0813V1.73389H78.0813ZM140.472 1.73389H141.472V0.733887H140.472V1.73389ZM140.472 14.7651V15.7651H141.472V14.7651H140.472ZM92.9406 14.7651V13.7651H91.9406V14.7651H92.9406ZM92.9406 29.3901H91.9406V30.3901H92.9406V29.3901ZM135.034 29.3901H136.034V28.3901H135.034V29.3901ZM135.034 41.6245V42.6245H136.034V41.6245H135.034ZM92.9406 41.6245V40.6245H91.9406V41.6245H92.9406ZM92.9406 62.0151H91.9406V63.0151H92.9406V62.0151ZM141.456 62.0151H142.456V61.0151H141.456V62.0151ZM141.456 74.9995V75.9995H142.456V74.9995H141.456ZM78.0813 74.9995H77.0813V75.9995H78.0813V74.9995ZM78.0813 2.73389H140.472V0.733887H78.0813V2.73389ZM139.472 1.73389V14.7651H141.472V1.73389H139.472ZM140.472 13.7651H92.9406V15.7651H140.472V13.7651ZM91.9406 14.7651V29.3901H93.9406V14.7651H91.9406ZM92.9406 30.3901H135.034V28.3901H92.9406V30.3901ZM134.034 29.3901V41.6245H136.034V29.3901H134.034ZM135.034 40.6245H92.9406V42.6245H135.034V40.6245ZM91.9406 41.6245V62.0151H93.9406V41.6245H91.9406ZM92.9406 63.0151H141.456V61.0151H92.9406V63.0151ZM140.456 62.0151V74.9995H142.456V62.0151H140.456ZM141.456 73.9995H78.0813V75.9995H141.456V73.9995ZM79.0813 74.9995V1.73389H77.0813V74.9995H79.0813ZM150.756 1.73389V0.733887H149.756V1.73389H150.756ZM165.616 1.73389H166.616V0.733887H165.616V1.73389ZM165.616 61.9683H164.616V62.9683H165.616V61.9683ZM208.225 61.9683H209.225V60.9683H208.225V61.9683ZM208.225 74.9995V75.9995H209.225V74.9995H208.225ZM150.756 74.9995H149.756V75.9995H150.756V74.9995ZM150.756 2.73389H165.616V0.733887H150.756V2.73389ZM164.616 1.73389V61.9683H166.616V1.73389H164.616ZM165.616 62.9683H208.225V60.9683H165.616V62.9683ZM207.225 61.9683V74.9995H209.225V61.9683H207.225ZM208.225 73.9995H150.756V75.9995H208.225V73.9995ZM151.756 74.9995V1.73389H149.756V74.9995H151.756ZM215.462 1.73389V0.733887H214.462V1.73389H215.462ZM230.322 1.73389H231.322V0.733887H230.322V1.73389ZM230.322 61.9683H229.322V62.9683H230.322V61.9683ZM272.931 61.9683H273.931V60.9683H272.931V61.9683ZM272.931 74.9995V75.9995H273.931V74.9995H272.931ZM215.462 74.9995H214.462V75.9995H215.462V74.9995ZM215.462 2.73389H230.322V0.733887H215.462V2.73389ZM229.322 1.73389V61.9683H231.322V1.73389H229.322ZM230.322 62.9683H272.931V60.9683H230.322V62.9683ZM271.931 61.9683V74.9995H273.931V61.9683H271.931ZM272.931 73.9995H215.462V75.9995H272.931V73.9995ZM216.462 74.9995V1.73389H214.462V74.9995H216.462ZM277.403 1.73389V0.733887H276.403V1.73389H277.403ZM292.263 1.73389H293.263V0.733887H292.263V1.73389ZM293.622 50.9526L292.678 51.2825L292.679 51.2861L293.622 50.9526ZM297.653 57.4683L296.946 58.1754L296.952 58.1815L297.653 57.4683ZM304.356 61.5464L304.023 62.4894L304.033 62.4928L304.356 61.5464ZM322.872 61.5464L323.195 62.4928L323.201 62.4906L322.872 61.5464ZM329.575 57.4683L328.874 56.755L328.868 56.7612L329.575 57.4683ZM333.653 50.9526L334.596 51.2861L334.597 51.2825L333.653 50.9526ZM335.013 1.73389V0.733887H334.013V1.73389H335.013ZM349.872 1.73389H350.872V0.733887H349.872V1.73389ZM328.966 73.6401L328.643 72.6934L328.641 72.6941L328.966 73.6401ZM298.263 73.6401L297.938 74.5861L297.94 74.5868L298.263 73.6401ZM277.403 2.73389H292.263V0.733887H277.403V2.73389ZM291.263 1.73389V42.0933H293.263V1.73389H291.263ZM291.263 42.0933C291.263 45.4957 291.728 48.5635 292.678 51.2825L294.566 50.6228C293.703 48.1543 293.263 45.3158 293.263 42.0933H291.263ZM292.679 51.2861C293.631 53.9778 295.051 56.2805 296.946 58.1754L298.36 56.7612C296.693 55.0935 295.425 53.0524 294.565 50.6192L292.679 51.2861ZM296.952 58.1815C298.88 60.076 301.244 61.5085 304.023 62.4894L304.689 60.6034C302.156 59.7093 300.051 58.423 298.354 56.755L296.952 58.1815ZM304.033 62.4928C306.816 63.4423 310.024 63.9058 313.638 63.9058V61.9058C310.189 61.9058 307.209 61.4629 304.679 60.6L304.033 62.4928ZM313.638 63.9058C317.221 63.9058 320.413 63.4421 323.195 62.4928L322.549 60.6C320.019 61.4632 317.054 61.9058 313.638 61.9058V63.9058ZM323.201 62.4906C326.012 61.51 328.381 60.0762 330.282 58.1754L328.868 56.7612C327.206 58.4229 325.106 59.7078 322.543 60.6022L323.201 62.4906ZM330.276 58.1815C332.204 56.2863 333.643 53.9817 334.596 51.2861L332.71 50.6192C331.851 53.0486 330.571 55.0877 328.874 56.755L330.276 58.1815ZM334.597 51.2825C335.547 48.5635 336.013 45.4957 336.013 42.0933H334.013C334.013 45.3158 333.572 48.1543 332.709 50.6228L334.597 51.2825ZM336.013 42.0933V1.73389H334.013V42.0933H336.013ZM335.013 2.73389H349.872V0.733887H335.013V2.73389ZM348.872 1.73389V43.8745H350.872V1.73389H348.872ZM348.872 43.8745C348.872 48.573 348.079 52.8162 346.51 56.618L348.359 57.381C350.04 53.3078 350.872 48.801 350.872 43.8745H348.872ZM346.51 56.618C344.94 60.4216 342.666 63.6734 339.684 66.3846L341.029 67.8644C344.234 64.9506 346.678 61.4525 348.359 57.381L346.51 56.618ZM339.684 66.3846C336.704 69.093 333.031 71.2003 328.643 72.6934L329.288 74.5868C333.9 73.0174 337.821 70.781 341.029 67.8644L339.684 66.3846ZM328.641 72.6941C324.297 74.1828 319.3 74.937 313.638 74.937V76.937C319.475 76.937 324.697 76.1599 329.29 74.5861L328.641 72.6941ZM313.638 74.937C307.975 74.937 302.962 74.1829 298.585 72.6934L297.94 74.5868C302.563 76.1599 307.8 76.937 313.638 76.937V74.937ZM298.587 72.6941C294.23 71.2014 290.572 69.0942 287.591 66.3846L286.246 67.8644C289.453 70.7799 293.357 73.0164 297.938 74.5861L298.587 72.6941ZM287.591 66.3846C284.609 63.6734 282.335 60.4216 280.765 56.618L278.916 57.381C280.597 61.4525 283.041 64.9506 286.246 67.8644L287.591 66.3846ZM280.765 56.618C279.196 52.8162 278.403 48.573 278.403 43.8745H276.403C276.403 48.801 277.235 53.3078 278.916 57.381L280.765 56.618ZM278.403 43.8745V1.73389H276.403V43.8745H278.403ZM364.234 53.2026L364.726 52.3319L363.912 51.8723L363.399 52.6532L364.234 53.2026ZM372.297 57.2808L371.888 58.1934L371.9 58.1988L372.297 57.2808ZM380.828 60.3276L380.552 61.2888L380.562 61.2915L380.828 60.3276ZM390.062 62.2026L389.928 63.1935L389.929 63.1937L390.062 62.2026ZM411.672 62.0151L411.851 62.9991L411.86 62.9972L411.672 62.0151ZM419.219 59.6245L419.677 60.5131L419.683 60.5103L419.219 59.6245ZM423.484 55.9683L422.644 55.4266L422.639 55.4332L422.635 55.44L423.484 55.9683ZM421.516 45.0933L420.94 45.9109L420.948 45.9163L421.516 45.0933ZM404.828 43.1714L404.939 44.1654L404.952 44.1637L404.828 43.1714ZM397.984 44.0151L397.85 43.0241L397.849 43.0244L397.984 44.0151ZM391.188 44.9058L391.299 45.8995L391.312 45.898L391.188 44.9058ZM375.438 44.0151L375.167 44.9778L375.169 44.9785L375.438 44.0151ZM367.422 40.2183L366.832 41.0261L366.838 41.0298L367.422 40.2183ZM360.625 19.0776L359.663 18.8029L359.661 18.81L359.66 18.8171L360.625 19.0776ZM363.25 13.4526L362.42 12.8946L362.418 12.8979L363.25 13.4526ZM367.938 8.43701L368.564 9.21667L368.571 9.2104L367.938 8.43701ZM374.828 4.40576L374.446 3.48174L374.442 3.48332L374.828 4.40576ZM384.203 1.78076L384.377 2.76548L384.384 2.76422L384.203 1.78076ZM406.234 1.35889L406.122 2.35258L406.131 2.35355L406.234 1.35889ZM415.891 2.85889L415.685 3.83754L415.687 3.83795L415.891 2.85889ZM424.984 5.24951L424.677 6.20127L424.687 6.20417L424.984 5.24951ZM433.094 8.29639L433.973 8.77355L434.487 7.82663L433.504 7.38446L433.094 8.29639ZM426.578 20.2964L426.176 21.2119L427.018 21.5819L427.457 20.7736L426.578 20.2964ZM419.922 17.812L419.609 18.762L419.621 18.7656L419.922 17.812ZM404.406 14.4839L404.282 15.4762L404.295 15.4776L404.406 14.4839ZM385.844 14.8589L385.626 13.883L385.623 13.8835L385.844 14.8589ZM379.562 17.1558L380.064 18.0208L380.071 18.0171L380.077 18.0133L379.562 17.1558ZM376.281 20.2495L375.401 19.774L375.397 19.7828L376.281 20.2495ZM378.344 29.0151L377.762 29.8289L377.771 29.835L378.344 29.0151ZM392.922 30.7495L393.026 31.7442L393.039 31.7427L392.922 30.7495ZM399.578 29.9526L399.459 28.9598L399.457 28.96L399.578 29.9526ZM406.703 29.2026L406.794 30.1986L406.805 30.1974L406.703 29.2026ZM425.219 30.2808L424.938 31.2406L424.94 31.2413L425.219 30.2808ZM433.609 34.4526L432.982 35.2314L432.989 35.2367L433.609 34.4526ZM438.719 40.9683L437.807 41.3796L437.809 41.3838L438.719 40.9683ZM437.5 60.7964L436.64 60.2855L436.639 60.2879L437.5 60.7964ZM429.156 69.1401L429.687 69.9877L429.689 69.9865L429.156 69.1401ZM416.125 74.2964L416.346 75.2716L416.352 75.2703L416.125 74.2964ZM387.016 75.2339L387.149 74.2428L387.142 74.2419L387.016 75.2339ZM375.672 73.0776L375.412 74.0432L375.421 74.0458L375.672 73.0776ZM365.359 69.6558L364.977 70.5799L364.988 70.5842L365.359 69.6558ZM356.312 65.2495L355.477 64.7001L354.893 65.5885L355.815 66.1172L356.312 65.2495ZM363.743 54.0734C366.425 55.5882 369.14 56.9616 371.888 58.1933L372.706 56.3683C370.016 55.1624 367.356 53.8171 364.726 52.3319L363.743 54.0734ZM371.9 58.1988C374.69 59.4036 377.574 60.4335 380.552 61.2888L381.104 59.3665C378.207 58.5343 375.403 57.533 372.693 56.3627L371.9 58.1988ZM380.562 61.2915C383.545 62.1167 386.667 62.7504 389.928 63.1935L390.197 61.2117C387.02 60.7799 383.986 60.1636 381.095 59.3638L380.562 61.2915ZM389.929 63.1937C393.228 63.6378 396.726 63.8589 400.422 63.8589V61.8589C396.805 61.8589 393.397 61.6425 390.196 61.2116L389.929 63.1937ZM400.422 63.8589C404.866 63.8589 408.68 63.5755 411.851 62.999L411.493 61.0313C408.476 61.5797 404.79 61.8589 400.422 61.8589V63.8589ZM411.86 62.9972C415.01 62.3927 417.626 61.5718 419.677 60.5131L418.76 58.7359C416.936 59.6772 414.521 60.4501 411.483 61.0331L411.86 62.9972ZM419.683 60.5103C421.757 59.4237 423.337 58.0974 424.333 56.4966L422.635 55.44C421.881 56.6516 420.618 57.7628 418.755 58.7387L419.683 60.5103ZM424.325 56.51C425.334 54.9439 425.844 53.2249 425.844 51.3745H423.844C423.844 52.8366 423.447 54.1801 422.644 55.4266L424.325 56.51ZM425.844 51.3745C425.844 48.3838 424.568 45.9848 422.084 44.2702L420.948 45.9163C422.901 47.2642 423.844 49.0527 423.844 51.3745H425.844ZM422.091 44.2757C419.622 42.5369 415.951 41.7495 411.25 41.7495V43.7495C415.799 43.7495 418.971 44.5247 420.94 45.9109L422.091 44.2757ZM411.25 41.7495C409.173 41.7495 406.991 41.8933 404.704 42.1791L404.952 44.1637C407.166 43.887 409.265 43.7495 411.25 43.7495V41.7495ZM404.718 42.1775C402.46 42.4284 400.171 42.7106 397.85 43.0241L398.118 45.0061C400.423 44.6947 402.697 44.4144 404.939 44.1653L404.718 42.1775ZM397.849 43.0244C395.571 43.3364 393.31 43.6327 391.063 43.9135L391.312 45.898C393.565 45.6163 395.835 45.3189 398.12 45.0059L397.849 43.0244ZM391.076 43.912C388.889 44.1584 386.833 44.2808 384.906 44.2808V46.2808C386.917 46.2808 389.048 46.1531 391.299 45.8995L391.076 43.912ZM384.906 44.2808C381.712 44.2808 378.646 43.8702 375.706 43.0518L375.169 44.9785C378.292 45.8476 381.538 46.2808 384.906 46.2808V44.2808ZM375.708 43.0525C372.812 42.2379 370.248 41.0207 368.006 39.4067L366.838 41.0298C369.283 42.7908 372.063 44.1049 375.167 44.9778L375.708 43.0525ZM368.011 39.4105C365.819 37.8109 364.074 35.8147 362.769 33.4128L361.012 34.3675C362.457 37.0281 364.399 39.2506 366.832 41.0261L368.011 39.4105ZM362.769 33.4128C361.487 31.0514 360.828 28.2677 360.828 25.0308H358.828C358.828 28.5438 359.545 31.6664 361.012 34.3675L362.769 33.4128ZM360.828 25.0308C360.828 23.1205 361.082 21.2236 361.59 19.3382L359.66 18.8171C359.106 20.8691 358.828 22.9411 358.828 25.0308H360.828ZM361.587 19.3524C362.119 17.4875 362.949 15.7065 364.082 14.0073L362.418 12.8979C361.176 14.7613 360.256 16.7302 359.663 18.8029L361.587 19.3524ZM364.08 14.0106C365.236 12.2912 366.727 10.6922 368.564 9.21663L367.311 7.65739C365.336 9.24437 363.701 10.9891 362.42 12.8946L364.08 14.0106ZM368.571 9.2104C370.391 7.71931 372.6 6.42239 375.214 5.3282L374.442 3.48332C371.681 4.63913 369.297 6.02972 367.304 7.66362L368.571 9.2104ZM375.21 5.32978C377.85 4.23772 380.903 3.38047 384.377 2.76546L384.029 0.796066C380.441 1.43106 377.244 2.3238 374.446 3.48174L375.21 5.32978ZM384.384 2.76422C387.874 2.12131 391.859 1.79639 396.344 1.79639V-0.203613C391.766 -0.203613 387.657 0.127718 384.022 0.797308L384.384 2.76422ZM396.344 1.79639C399.587 1.79639 402.846 1.9817 406.122 2.35254L406.347 0.365234C402.998 -0.0139275 399.663 -0.203613 396.344 -0.203613V1.79639ZM406.131 2.35355C409.411 2.69388 412.595 3.18868 415.685 3.83754L416.096 1.88023C412.936 1.21659 409.683 0.711391 406.338 0.364227L406.131 2.35355ZM415.687 3.83795C418.81 4.48733 421.807 5.27526 424.677 6.20122L425.291 4.2978C422.349 3.34876 419.283 2.54294 416.094 1.87983L415.687 3.83795ZM424.687 6.20417C427.559 7.09974 430.224 8.10149 432.683 9.20831L433.504 7.38446C430.964 6.24128 428.223 5.21178 425.282 4.29485L424.687 6.20417ZM432.215 7.81922L425.699 19.8192L427.457 20.7736L433.973 8.77355L432.215 7.81922ZM426.98 19.3809C424.882 18.4587 422.629 17.6182 420.223 16.8584L419.621 18.7656C421.965 19.5059 424.15 20.3216 426.176 21.2119L426.98 19.3809ZM420.234 16.8621C417.824 16.0693 415.306 15.3885 412.681 14.8191L412.257 16.7737C414.819 17.3293 417.269 17.9922 419.609 18.7619L420.234 16.8621ZM412.681 14.8191C410.052 14.249 407.331 13.8062 404.518 13.4901L404.295 15.4776C407.044 15.7866 409.698 16.2187 412.257 16.7737L412.681 14.8191ZM404.53 13.4916C401.738 13.1425 398.884 12.9683 395.969 12.9683V14.9683C398.804 14.9683 401.575 15.1377 404.282 15.4762L404.53 13.4916ZM395.969 12.9683C391.834 12.9683 388.38 13.2674 385.626 13.883L386.062 15.8348C388.62 15.2629 391.916 14.9683 395.969 14.9683V12.9683ZM385.623 13.8835C382.939 14.4906 380.734 15.2867 379.048 16.2983L380.077 18.0133C381.516 17.1498 383.498 16.4146 386.064 15.8342L385.623 13.8835ZM379.061 16.2907C377.396 17.2562 376.141 18.4057 375.402 19.774L377.161 20.725C377.671 19.7808 378.604 18.8678 380.064 18.0208L379.061 16.2907ZM375.397 19.7828C374.737 21.0326 374.391 22.3166 374.391 23.6245H376.391C376.391 22.6824 376.638 21.7164 377.166 20.7163L375.397 19.7828ZM374.391 23.6245C374.391 26.1728 375.563 28.258 377.763 29.8289L378.925 28.2014C377.187 26.9597 376.391 25.4512 376.391 23.6245H374.391ZM377.771 29.835C379.987 31.3828 383.233 32.0776 387.344 32.0776V30.0776C383.392 30.0776 380.638 29.3975 378.916 28.1953L377.771 29.835ZM387.344 32.0776C389.012 32.0776 390.907 31.9655 393.026 31.7441L392.818 29.7549C390.749 29.9711 388.926 30.0776 387.344 30.0776V32.0776ZM393.039 31.7427C395.165 31.4925 397.385 31.2267 399.699 30.9453L399.457 28.96C397.146 29.2411 394.929 29.5065 392.805 29.7564L393.039 31.7427ZM399.697 30.9455C402.031 30.6654 404.397 30.4164 406.794 30.1985L406.613 28.2067C404.197 28.4263 401.812 28.6773 399.459 28.9598L399.697 30.9455ZM406.805 30.1974C409.211 29.9506 411.536 29.8276 413.781 29.8276V27.8276C411.464 27.8276 409.07 27.9546 406.601 28.2079L406.805 30.1974ZM413.781 29.8276C418.021 29.8276 421.736 30.3041 424.938 31.2406L425.499 29.321C422.076 28.3199 418.166 27.8276 413.781 27.8276V29.8276ZM424.94 31.2413C428.182 32.1805 430.854 33.5172 432.982 35.2314L434.237 33.6739C431.865 31.7631 428.943 30.3185 425.497 29.3203L424.94 31.2413ZM432.989 35.2367C435.116 36.9209 436.718 38.9659 437.807 41.3796L439.63 40.557C438.407 37.8456 436.603 35.5469 434.23 33.6686L432.989 35.2367ZM437.809 41.3838C438.898 43.7681 439.453 46.4674 439.453 49.4995H441.453C441.453 46.2191 440.852 43.2309 439.628 40.5528L437.809 41.3838ZM439.453 49.4995C439.453 53.556 438.509 57.142 436.64 60.2855L438.36 61.3073C440.429 57.8258 441.453 53.8805 441.453 49.4995H439.453ZM436.639 60.2879C434.792 63.4158 432.131 66.0867 428.624 68.2938L429.689 69.9865C433.432 67.631 436.333 64.7395 438.361 61.3048L436.639 60.2879ZM428.626 68.2925C425.144 70.4721 420.908 72.1544 415.898 73.3225L416.352 75.2703C421.529 74.0633 425.981 72.3081 429.687 69.9877L428.626 68.2925ZM415.904 73.3212C410.895 74.4581 405.299 75.0308 399.109 75.0308V77.0308C405.42 77.0308 411.167 76.4472 416.346 75.2716L415.904 73.3212ZM399.109 75.0308C395.027 75.0308 391.041 74.7679 387.149 74.2429L386.882 76.2249C390.865 76.7624 394.941 77.0308 399.109 77.0308V75.0308ZM387.142 74.2419C383.244 73.7469 379.504 73.0358 375.922 72.1095L375.421 74.0458C379.09 74.9945 382.913 75.7209 386.89 76.2259L387.142 74.2419ZM375.932 72.1121C372.374 71.153 368.974 70.0245 365.731 68.7273L364.988 70.5842C368.307 71.912 371.782 73.0648 375.412 74.0432L375.932 72.1121ZM365.741 68.7316C362.527 67.4027 359.55 65.9524 356.81 64.3819L355.815 66.1172C358.637 67.7341 361.691 69.2213 364.977 70.5799L365.741 68.7316ZM357.148 65.799L365.07 53.7521L363.399 52.6532L355.477 64.7001L357.148 65.799ZM474.194 1.73389V0.733887H473.194V1.73389H474.194ZM489.053 1.73389L489.517 0.847984L489.299 0.733887H489.053V1.73389ZM534.709 25.6401L534.245 26.526L535.709 27.2925V25.6401H534.709ZM534.709 1.73389V0.733887H533.709V1.73389H534.709ZM549.569 1.73389H550.569V0.733887H549.569V1.73389ZM549.569 74.9995V75.9995H550.569V74.9995H549.569ZM534.709 74.9995H533.709V75.9995H534.709V74.9995ZM534.709 41.3901H535.709V40.7833L535.171 40.5031L534.709 41.3901ZM489.053 17.6245L489.515 16.7375L488.053 15.9766V17.6245H489.053ZM489.053 74.9995V75.9995H490.053V74.9995H489.053ZM474.194 74.9995H473.194V75.9995H474.194V74.9995ZM474.194 2.73389H489.053V0.733887H474.194V2.73389ZM488.589 2.61979L534.245 26.526L535.173 24.7542L489.517 0.847984L488.589 2.61979ZM535.709 25.6401V1.73389H533.709V25.6401H535.709ZM534.709 2.73389H549.569V0.733887H534.709V2.73389ZM548.569 1.73389V74.9995H550.569V1.73389H548.569ZM549.569 73.9995H534.709V75.9995H549.569V73.9995ZM535.709 74.9995V41.3901H533.709V74.9995H535.709ZM535.171 40.5031L489.515 16.7375L488.591 18.5115L534.248 42.2772L535.171 40.5031ZM488.053 17.6245V74.9995H490.053V17.6245H488.053ZM489.053 73.9995H474.194V75.9995H489.053V73.9995ZM475.194 74.9995V1.73389H473.194V74.9995H475.194ZM560.322 1.73389V0.733887H559.322V1.73389H560.322ZM575.181 1.73389H576.181V0.733887H575.181V1.73389ZM576.541 50.9526L575.597 51.2825L575.598 51.2861L576.541 50.9526ZM580.572 57.4683L579.865 58.1754L579.871 58.1815L580.572 57.4683ZM587.275 61.5464L586.942 62.4894L586.952 62.4928L587.275 61.5464ZM605.791 61.5464L606.114 62.4928L606.12 62.4906L605.791 61.5464ZM612.494 57.4683L611.793 56.755L611.787 56.7612L612.494 57.4683ZM616.572 50.9526L617.515 51.2861L617.516 51.2825L616.572 50.9526ZM617.931 1.73389V0.733887H616.931V1.73389H617.931ZM632.791 1.73389H633.791V0.733887H632.791V1.73389ZM611.884 73.6401L611.562 72.6934L611.56 72.6941L611.884 73.6401ZM581.181 73.6401L580.857 74.5861L580.859 74.5868L581.181 73.6401ZM560.322 2.73389H575.181V0.733887H560.322V2.73389ZM574.181 1.73389V42.0933H576.181V1.73389H574.181ZM574.181 42.0933C574.181 45.4957 574.647 48.5635 575.597 51.2825L577.485 50.6228C576.622 48.1543 576.181 45.3158 576.181 42.0933H574.181ZM575.598 51.2861C576.55 53.9778 577.97 56.2805 579.865 58.1754L581.279 56.7612C579.611 55.0935 578.344 53.0524 577.483 50.6192L575.598 51.2861ZM579.871 58.1815C581.799 60.076 584.163 61.5085 586.942 62.4894L587.608 60.6034C585.075 59.7093 582.97 58.423 581.273 56.755L579.871 58.1815ZM586.952 62.4928C589.735 63.4423 592.942 63.9058 596.556 63.9058V61.9058C593.108 61.9058 590.127 61.4629 587.598 60.6L586.952 62.4928ZM596.556 63.9058C600.14 63.9058 603.331 63.4421 606.114 62.4928L605.468 60.6C602.938 61.4632 599.972 61.9058 596.556 61.9058V63.9058ZM606.12 62.4906C608.931 61.51 611.3 60.0762 613.201 58.1754L611.787 56.7612C610.125 58.4229 608.025 59.7078 605.461 60.6022L606.12 62.4906ZM613.195 58.1815C615.123 56.2863 616.561 53.9817 617.515 51.2861L615.629 50.6192C614.77 53.0486 613.489 55.0877 611.793 56.755L613.195 58.1815ZM617.516 51.2825C618.466 48.5635 618.931 45.4957 618.931 42.0933H616.931C616.931 45.3158 616.49 48.1543 615.628 50.6228L617.516 51.2825ZM618.931 42.0933V1.73389H616.931V42.0933H618.931ZM617.931 2.73389H632.791V0.733887H617.931V2.73389ZM631.791 1.73389V43.8745H633.791V1.73389H631.791ZM631.791 43.8745C631.791 48.573 630.998 52.8162 629.429 56.618L631.278 57.381C632.959 53.3078 633.791 48.801 633.791 43.8745H631.791ZM629.429 56.618C627.859 60.4216 625.585 63.6734 622.602 66.3846L623.948 67.8644C627.153 64.9506 629.597 61.4525 631.278 57.381L629.429 56.618ZM622.602 66.3846C619.623 69.093 615.95 71.2003 611.562 72.6934L612.207 74.5868C616.819 73.0174 620.74 70.781 623.948 67.8644L622.602 66.3846ZM611.56 72.6941C607.216 74.1828 602.219 74.937 596.556 74.937V76.937C602.393 76.937 607.616 76.1599 612.209 74.5861L611.56 72.6941ZM596.556 74.937C590.894 74.937 585.881 74.1829 581.503 72.6934L580.859 74.5868C585.482 76.1599 590.719 76.937 596.556 76.937V74.937ZM581.505 72.6941C577.149 71.2014 573.491 69.0942 570.51 66.3846L569.165 67.8644C572.372 70.7799 576.276 73.0164 580.857 74.5861L581.505 72.6941ZM570.51 66.3846C567.528 63.6734 565.253 60.4216 563.684 56.618L561.835 57.381C563.515 61.4525 565.96 64.9506 569.165 67.8644L570.51 66.3846ZM563.684 56.618C562.115 52.8162 561.322 48.573 561.322 43.8745H559.322C559.322 48.801 560.154 53.3078 561.835 57.381L563.684 56.618ZM561.322 43.8745V1.73389H559.322V43.8745H561.322ZM643.731 1.73389V0.733887H642.731V1.73389H643.731ZM658.591 1.73389H659.591V0.733887H658.591V1.73389ZM658.591 61.9683H657.591V62.9683H658.591V61.9683ZM701.2 61.9683H702.2V60.9683H701.2V61.9683ZM701.2 74.9995V75.9995H702.2V74.9995H701.2ZM643.731 74.9995H642.731V75.9995H643.731V74.9995ZM643.731 2.73389H658.591V0.733887H643.731V2.73389ZM657.591 1.73389V61.9683H659.591V1.73389H657.591ZM658.591 62.9683H701.2V60.9683H658.591V62.9683ZM700.2 61.9683V74.9995H702.2V61.9683H700.2ZM701.2 73.9995H643.731V75.9995H701.2V73.9995ZM644.731 74.9995V1.73389H642.731V74.9995H644.731ZM708.438 1.73389V0.733887H707.438V1.73389H708.438ZM723.297 1.73389H724.297V0.733887H723.297V1.73389ZM723.297 61.9683H722.297V62.9683H723.297V61.9683ZM765.906 61.9683H766.906V60.9683H765.906V61.9683ZM765.906 74.9995V75.9995H766.906V74.9995H765.906ZM708.438 74.9995H707.438V75.9995H708.438V74.9995ZM708.438 2.73389H723.297V0.733887H708.438V2.73389ZM722.297 1.73389V61.9683H724.297V1.73389H722.297ZM723.297 62.9683H765.906V60.9683H723.297V62.9683ZM764.906 61.9683V74.9995H766.906V61.9683H764.906ZM765.906 73.9995H708.438V75.9995H765.906V73.9995ZM709.438 74.9995V1.73389H707.438V74.9995H709.438ZM798.128 1.73389V0.733887H797.493L797.223 1.30882L798.128 1.73389ZM813.878 1.73389L814.778 1.29846L814.505 0.733887H813.878V1.73389ZM849.316 74.9995V75.9995H850.91L850.216 74.5641L849.316 74.9995ZM833.706 74.9995L832.803 75.4288L833.074 75.9995H833.706V74.9995ZM827.847 62.6714L828.75 62.2421L828.479 61.6714H827.847V62.6714ZM785.05 62.6714V61.6714H784.409L784.142 62.2534L785.05 62.6714ZM779.378 74.9995V75.9995H780.019L780.287 75.4175L779.378 74.9995ZM763.722 74.9995L762.817 74.5744L762.147 75.9995H763.722V74.9995ZM821.987 50.437V51.437H823.571L822.89 50.0072L821.987 50.437ZM806.144 17.1558L807.047 16.7259L806.132 14.8036L805.236 16.7353L806.144 17.1558ZM790.722 50.437L789.815 50.0166L789.156 51.437H790.722V50.437ZM798.128 2.73389H813.878V0.733887H798.128V2.73389ZM812.978 2.16931L848.415 75.4349L850.216 74.5641L814.778 1.29846L812.978 2.16931ZM849.316 73.9995H833.706V75.9995H849.316V73.9995ZM834.609 74.5702L828.75 62.2421L826.944 63.1007L832.803 75.4288L834.609 74.5702ZM827.847 61.6714H785.05V63.6714H827.847V61.6714ZM784.142 62.2534L778.47 74.5816L780.287 75.4175L785.958 63.0893L784.142 62.2534ZM779.378 73.9995H763.722V75.9995H779.378V73.9995ZM764.627 75.4246L799.033 2.15896L797.223 1.30882L762.817 74.5744L764.627 75.4246ZM822.89 50.0072L807.047 16.7259L805.241 17.5856L821.085 50.8668L822.89 50.0072ZM805.236 16.7353L789.815 50.0166L791.629 50.8574L807.051 17.5762L805.236 16.7353ZM790.722 51.437H821.987V49.437H790.722V51.437ZM852.803 63.3745L851.899 62.9475L851.894 62.9588L852.803 63.3745ZM855.053 60.4683L855.696 61.2345L855.703 61.2285L855.71 61.2223L855.053 60.4683ZM871.319 60.4683L870.65 61.2116L870.663 61.2232L870.676 61.2345L871.319 60.4683ZM873.522 63.3745L872.608 63.7806L872.615 63.7962L872.622 63.8114L873.522 63.3745ZM873.522 70.4526L872.618 70.0256L872.612 70.0369L873.522 70.4526ZM871.319 73.312L870.676 72.5458L870.67 72.551L870.664 72.5563L871.319 73.312ZM867.85 75.2339L867.527 74.2874L867.518 74.2906L867.508 74.2941L867.85 75.2339ZM858.569 75.2339L858.91 74.2941L858.901 74.2906L858.891 74.2874L858.569 75.2339ZM852.803 70.4526L851.889 70.8588L851.896 70.8743L851.904 70.8895L852.803 70.4526ZM853.053 66.8901C853.053 65.7778 853.275 64.7484 853.713 63.7903L851.894 62.9588C851.332 64.1882 851.053 65.5025 851.053 66.8901H853.053ZM853.707 63.8015C854.176 62.8093 854.836 61.9557 855.696 61.2345L854.41 59.7021C853.333 60.6059 852.493 61.6897 851.899 62.9475L853.707 63.8015ZM855.71 61.2223C856.569 60.4742 857.623 59.8784 858.891 59.446L858.246 57.553C856.764 58.0582 855.475 58.7748 854.396 59.7142L855.71 61.2223ZM858.891 59.446C860.145 59.0185 861.581 58.7964 863.209 58.7964V56.7964C861.4 56.7964 859.742 57.043 858.246 57.553L858.891 59.446ZM863.209 58.7964C864.838 58.7964 866.273 59.0185 867.527 59.446L868.173 57.553C866.677 57.043 865.018 56.7964 863.209 56.7964V58.7964ZM867.527 59.446C868.794 59.8777 869.827 60.471 870.65 61.2116L871.988 59.725C870.936 58.7781 869.656 58.0588 868.173 57.553L867.527 59.446ZM870.676 61.2345C871.531 61.9519 872.172 62.7986 872.608 63.7806L874.436 62.9684C873.872 61.7004 873.043 60.6097 871.961 59.7021L870.676 61.2345ZM872.622 63.8114C873.086 64.7651 873.319 65.7871 873.319 66.8901H875.319C875.319 65.4931 875.021 64.1714 874.421 62.9376L872.622 63.8114ZM873.319 66.8901C873.319 67.9932 873.086 69.0348 872.618 70.0256L874.426 70.8796C875.021 69.6205 875.319 68.2871 875.319 66.8901H873.319ZM872.612 70.0369C872.177 70.9885 871.537 71.8238 870.676 72.5458L871.961 74.0782C873.038 73.1752 873.866 72.1043 874.431 70.8684L872.612 70.0369ZM870.664 72.5563C869.839 73.2713 868.801 73.8532 867.527 74.2874L868.173 76.1804C869.649 75.6771 870.924 74.9778 871.974 74.0677L870.664 72.5563ZM867.508 74.2941C866.26 74.748 864.831 74.9839 863.209 74.9839V76.9839C865.025 76.9839 866.69 76.7198 868.192 76.1737L867.508 74.2941ZM863.209 74.9839C861.587 74.9839 860.159 74.748 858.91 74.2941L858.227 76.1737C859.729 76.7198 861.394 76.9839 863.209 76.9839V74.9839ZM858.891 74.2874C857.616 73.8526 856.557 73.2681 855.696 72.5458L854.41 74.0782C855.487 74.9809 856.771 75.6777 858.246 76.1804L858.891 74.2874ZM855.696 72.5458C854.83 71.8201 854.17 70.9778 853.703 70.0157L851.904 70.8895C852.499 72.115 853.338 73.1789 854.41 74.0782L855.696 72.5458ZM853.717 70.0465C853.275 69.0514 853.053 68.0024 853.053 66.8901H851.053C851.053 68.2778 851.332 69.6039 851.889 70.8588L853.717 70.0465Z" fill="#1D1D1D"/>
</svg>
